<svg version="1.2" xmlns="http://www.w3.org/2000/svg" viewBox="0 0 612 792" width="612" height="792">
	<style>
		.s0 { fill: #000000 } 
	</style>
	<g id="Layer 1">
		<path id="Path 685" fill-rule="evenodd" class="s0" d="m523.43 456.46c0 0-61.87-12.82-64.27 8.03-2.39 20.79 31.6 62.29 31.6 62.29 0 0-47.67-25.32-60.76-13.33-12.18 11.15 10.89 45.65 10.89 45.65-31.2-22.45 2.84 43.53 4.03 45.72 12.36 22.74 33.42 47.49 33.42 47.49 0 0-60.89-64.53-79.45-63.5-38.42 2.13-11.75 75.46-11.75 75.46 0 0-15.01-63.42-40.94-58.08-27.33 5.64-26.12 66.84-26.12 66.84 0 0-3.97-55.76-26.82-36.45-12.07 10.2-30.93 61.7-30.93 61.7 0 0-4.59-94.19-29.6-55.42-11.69 18.13-58.99 74.14-58.99 74.14 0 0 23.31-91.41 23.05-111.32-0.1-7.88-0.35-38.21-10.36-41.97-14.46-5.44-106.35 48.51-106.35 48.51 0 0 76.1-49.82 87.32-96.99 9.66-40.65-83.09 5.59-83.09 5.59 0 0 78.33-45.5 72.06-68.69-7.41-27.36-97.6-24.42-97.6-24.42 0 0 88.19-28.07 84.37-46.97-4.28-21.22-128.14-35.71-128.14-35.71 0 0 49.88-12.69 73.44-18.04 18.51-4.21 50.97-10.28 62.25-26.34 14.87-21.18-42.93-56.19-42.93-56.19 0 0 54.55 26.41 61.92 11.82 6-11.88-9.22-36.79-14.54-46.42-10.1-18.29-36.35-50.8-36.35-50.8 0 0 50.29 37.34 64.01 29.76 17.67-9.76-9.96-62.89-9.96-62.89 0 0 22.88 26.85 36.57 36.75 14.83 10.73 24.91 19.13 36.2 1.2 17.45-27.72 19.72-88.88 19.72-88.88 0 0 6.88 33.05 14.77 49.14 7.42 15.14 26.14 46.71 49.29 42.2 20.47-3.99 37.36-34.1 48.7-47.93 10.7-13.05 28.78-41.11 28.78-41.11 0 0-35.96 62.4-13.04 85.67 16.78 17.03 84.6-36.9 84.6-36.9 0 0-82.68 62.76-41.9 84.68 35.34 19 112.02-17.77 112.02-17.77 0 0-101.64 49.63-84.89 102.58 11.36 35.92 116.87 24.88 116.87 24.88 0 0-69.88 11.11-86.26 30.82-23.49 28.26 44.79 26.28 44.79 26.28 0 0-101.88-2.14-77.26 25.94 12.25 13.98 83.46 16.16 83.46 16.16 0 0-49.43-1.41-73.99 2.37-1.73 0.27-13.11 1.12-14.47 3.08-5.31 7.66 6.49 11.41 12.9 14.35 14.4 6.61 53.73 17.02 53.73 17.02z"/>
	</g>
</svg>