<svg version="1.2" xmlns="http://www.w3.org/2000/svg" viewBox="3426 2705 596.0000000000009 327" width="597" height="327">
	<style>
		tspan { white-space:pre } 
		.s0 { fill: #28201a } 
		.s1 { fill: #d4a23b } 
		.s2 { fill: #f2dcab } 
		.s3 { fill: #ffffff } 
		.s4 { fill: #baa2be } 
		.s5 { fill: #a562a3;stroke: #28201a;stroke-miterlimit:10;stroke-width: 2.3 } 
		.s6 { fill: #ff5a5a } 
	</style>
	<g id="Page 10">
		<g id="Mask">
			<g id="&lt;Group&gt;" style="opacity: .22">
			</g>
		</g>
		<path id="Path 3428" fill-rule="evenodd" class="s0" d="m3124.67 2894.33c0-3.26 0.6-7.5-0.5-10.05-0.97-2.25-3.32-3.37-5.08-4.87-2.73-2.35-5.3-5.92-6.76-9.46-1.28-3.07-0.74-7.37-1.39-11.04-1.38-7.68-1.55-16.15-4.38-22.29-1.18-2.55-3.15-5.54-5.48-6.96-4.94-3.03-7.25-1.61-10.15-7.37-0.74-1.47-1.19-3.26-1.19-5.37q0.05-1.49 0.1-2.99c-0.53-2.17-5.55-6.69-6.96-8.95-0.76-1.22-1.41-3.12-2.69-3.78-2.02-1.04-5.07 0.39-7.46 0.4q-2.79-27.87-5.58-55.73c4.23-1.52 7.5-5.32 4.28-10.54-2.5-4.07-7.63-7.38-14.23-7.27-3.15 1.21-4.61 1.16-6.27 3.88-2.61 4.31 2.58 10.61 5.88 11.74 1.36 2.02 1.04 10.31 1.59 13.54q1.99 19.3 3.98 38.6-0.1 0.05-0.2 0.1c-2.7-3.1-5.5-5.98-7.46-9.85-0.97-1.9-0.77-5.98-2.39-7.26q-2.54-1.1-5.08-2.19c-1.96-1.09-3.43-2.92-5.97-3.38q-1.29 0.15-2.58 0.3c-3.43 0.57-9.76 1.16-12.64 0.29-3.31-0.99-5.75-7.65-9.65-9.45-4.55-2.1-11.13-0.87-16.92-1.99q-4.87-0.84-9.75-1.69-2.94-0.3-5.87-0.6c-3.59-0.94-7.3-3.57-12.44-2.58-5.62 1.07-8.48 4.19-13.03 6.06-4.05 1.67-8.97 1.68-13.84 2.49-3.11 0.52-7.28 0.14-10.05-0.3q-3.93-0.24-7.86-0.49c-7.83-1.36-19.29-1.93-26.56 0.29-5.2 1.6-8.46 5.48-13.04 7.47-2.52 1.09-5.54 1.39-8.66 1.99q-2.13 0.3-4.27 0.6-3.09 2.13-6.17 4.27-3.24 1.7-6.47 3.39c-1.52 1.12-1.61 3.49-2.39 5.37-1.02 2.47-2.95 5.84-5.17 7.16q-1.45 0.35-2.89 0.7-2.19 0.85-4.38 1.69c-4.6 1.31-10.69 1.17-13.93 3.88-4.21 3.52-6.98 10.89-10.25 15.53-3.97 5.63-9.42 9.47-11.74 16.81-2.21 6.99-1.22 16.84-3.88 23.39-3.4 8.38-9.43 13.97-12.74 22.48-2.88 7.42-1.12 18.73 0.2 26.57 0.55 3.24-0.12 7.11 0.6 10.45 1.31 6.03 6.71 8.8 9.55 13.33 2.09 3.33 3.49 7.31 4.78 11.44q0.5 2.29 0.99 4.58 5.03 6.52 10.05 13.04c1 0.74 2.53 0.8 3.79 1.29 3.06 1.19 7.07 3.12 8.95 5.57q1.79 3.39 3.58 6.77 2.14 3.13 4.28 6.27 1.3 3.08 2.59 6.17c1.09 2.76 1.42 8.32 3.08 10.44 1.35 1.73 10.87 7.21 14.23 6.57q6.37-2.14 12.74-4.28c2.36-0.48 5.45-0.04 7.46 0.3 5.45 0.92 9.9 0.99 14.23 2.79 4.14 1.72 8.12 4.48 11.54 7.06 0.87 0.65 1.73 1.49 2.64 2.31-1.32 0.67-2.61 1.47-3.49 1.31l-3.09-1.3c-3.89-1.21-7.84-1.85-13.03-1.79q-1.8 0.45-3.59 0.9c-3.44 1.31-6.52 4.46-7.96 7.76-0.72 1.66-0.79 7.41-1.79 8.46q-2.73 2.29-5.47 4.57c-4.57 3.68-9.97 10.52-12.34 16.32-1.15 2.82-2.52 7.64-1.69 11.84 0.43 2.2 1.23 4.17 1.99 6.07-4.72 4.83-10.9 8.11-14.53 14.03-5.52 9.01-7.25 21.08-13.73 29.16-2.9 3.61-7.37 7.2-11.84 9.15-2.67 1.17-8.76 3.03-9.95 5.38 0 3.01 3.96 4.53 5.97 5.67 3.62 2.05 7.16 3.85 11.94 4.97 2 0.47 4.08 0.11 6.37 0.5 1.68 0.29 4.29 0.65 6.27 0.3 3.44-0.6 7.05-0.96 9.95-2.09 7.44-2.91 13.09-6.91 22.29-8.46 5.33-0.9 9.88 1.01 13.43 2.09 5.35 1.64 10.14 3.36 15.62 4.58 7.78 1.73 14.26-1.52 19.8-3.38q0.3 0.05 0.6 0.09 0.15 0.8 0.3 1.6c-6.1 2.28-3.81 9.27 1.89 10.35 0.39 0.66 0.83 2.41 0.6 3.28-5.09 1.24-6.14 7.15-1.8 9.95 0.94 0.6 2.46 0.58 3.79 0.8 1.27 2.57 1.02 7.45 1.59 10.64v0.1c-1.13 0.21-2.73-0.63-3.88-0.89-2.77-0.65-6.94-1.27-10.45-0.7-11.95 1.94-19.59 9.03-14.13 21.99-0.79 0.42-1.69 0.79-1.99 1.69-0.65 1.96-0.36 9.49 0.8 10.15 1.04 0.6 5.97 0.3 7.56 0.3q9 0.1 18.01 0.2 14.92 0.15 29.85 0.3c2.33 0.35 5.08-0.48 6.96-0.3 3.16 0.3 7 0.2 10.55 0.2q3.29-0.05 6.57-0.1 5.92-0.05 11.84-0.1 16.27-0.15 32.54-0.3c2.49-0.61 2.38-11.22-0.4-11.84-0.33-0.96 1.19-3.35 1.49-4.68 0.42-1.82 0.43-4.18 0-5.97-1.65-6.89-7.19-9.8-14.43-11.24-1.8-0.36-5.02-0.68-7.26-0.3-2.9 0.49-5.72 1.38-8.36 1.69q-0.05-0.05-0.1-0.1 0.7-5.27 1.4-10.55c1.34-0.69 3.27-0.44 4.37-1.29 2.06-1.57 3.5-6.09 0.9-8.16-0.85-0.67-1.9-0.93-2.89-1.49-0.56-0.43 0-2.34 0.2-3.09 1.29-0.67 2.81-0.73 3.78-1.69 2.52-2.47 2.7-8.03-1.59-8.75-0.13-0.49-0.02-1.08 0.2-1.5q0.1-0.15 0.2-0.29c1.89 0.14 3.44 1.09 4.98 1.69 3.61 1.41 8.9 2.85 14.03 1.89 6.03-1.13 11.11-3.01 16.81-4.78 3.88-1.2 9.11-3.02 14.83-1.99 7.92 1.44 13.56 5.37 20.1 8.06 2.89 1.19 6.38 1.62 9.85 2.29 2.17 0.42 5.18 0.13 7.16-0.2q2.59-0.15 5.18-0.3c4.79-0.98 8.54-2.51 12.04-4.58 2.54-1.5 5.73-2.69 7.06-5.37-0.02-2.99-7.48-5.19-9.95-6.27-6.77-2.97-11.7-8.45-15.42-14.53-4.57-7.45-6.04-17.67-10.85-24.87-2.43-3.64-6.24-6.65-9.65-9.35q-2.09-1.8-4.18-3.59c2.48-3.85 2.65-11.76 0.9-16.61-2.17-6-8.38-13.95-12.94-17.62q-2.74-2.28-5.47-4.57c-0.93-0.97-1.05-7.3-2.09-9.06-1.8-3.01-4.19-5.84-7.66-7.16-3.02-1.15-7.98-1.07-12.31-0.31 2.79-2.18 5.27-4.64 8.49-6.39 2.05-1.12 4.38-2.17 6.86-2.79 2.97-0.73 6.11-0.6 8.66-1.69 3.67-1.56 5.95-5.32 9.35-7.36 2.44-1.47 8.6-0.85 11.65-1.69 4.7-1.31 8.34-4.28 11.74-6.97 4.27-3.38 8.93-10.56 10.25-16.81 0.75-3.59-0.95-7.38-0.3-11.15 0.52-3.04 1.38-5.77 2.49-8.26 3.32-7.5 10.93-10.54 15.62-16.42 2.26-2.83 4.32-6.4 5.97-9.75 1.45-2.95 1.89-6.4 3.58-8.95q2.49-3.09 4.97-6.17c1.19-1.47 2.94-2.69 3.69-4.58 0.67-1.71 0-4.38 0-6.47zm-11.64-5.74c0.12-0.78 0.23-1.7 0.24-2.61-0.01 0.91-0.12 1.83-0.24 2.61zm-5.68-22.91q-0.12-1.46-0.24-2.92-0.03-0.28-0.05-0.57 0.15 1.74 0.29 3.49 0.6 3.28 1.2 6.56-0.6-3.28-1.2-6.56zm-8.29-32.51q0.02 0.01 0.04 0.02 0.03 0.02 0.06 0.05-0.05-0.04-0.1-0.07zm-0.82-0.48q0.01 0 0.03 0.01 0.01 0.01 0.02 0.02-0.02-0.02-0.05-0.03zm-1.07 66.81q0 0 0 0.01v0.01q0-0.38 0-0.75 0 0.36 0 0.73zm-0.11-7.2v0.02q0 0.33 0.01 0.67-0.01-0.35-0.01-0.69zm-0.08-7.47q0 0.53 0.01 1.06 0 0.03 0 0.06-0.01-0.56-0.01-1.12zm-0.23-8.11q0 0 0 0.01 0.06 1.12 0.1 2.25-0.04-1.13-0.1-2.26zm0.08 28.91q-0.01 0.02-0.01 0.04 0.01-0.04 0.01-0.09 0 0.03 0 0.05zm-1.07-73.96q-0.03-0.01-0.06-0.02 0.51 0.19 1.02 0.38-0.47-0.18-0.96-0.36zm0.77 75.69q-0.02 0.12-0.05 0.24 0 0.01 0 0.02 0.03-0.15 0.06-0.31 0 0.03-0.01 0.05zm-0.82 2.5q-0.17 0.34-0.37 0.66 0.2-0.32 0.37-0.66 0.01-0.01 0.01-0.02 0 0.01-0.01 0.02zm-1.77 2.29q0 0 0 0 0.75-0.66 1.33-1.54-0.58 0.88-1.33 1.54zm-1.61-35.93c-1.6-10.26 0.77-23.65-3.68-31.04-0.58-0.96-1.29-1.93-2.1-2.81 0.81 0.88 1.52 1.85 2.1 2.81 4.45 7.39 2.08 20.78 3.68 31.04q0.3 2.01 0.42 4.13-0.12-2.12-0.42-4.13zm-1.47 37.75q-0.35 0.14-0.7 0.26 0.37-0.13 0.72-0.27-0.01 0-0.02 0.01zm-2.71-53.67q0.2 3.68 0.4 7.37 0.28 1.86 0.47 3.7-0.19-1.84-0.47-3.7-0.2-3.69-0.4-7.37zm1.59 43.88c-2 3.43-5.79 3.02-10.45 3.88q-3.03 0.65-6.07 1.3 3.04-0.65 6.07-1.3c4.66-0.86 8.45-0.45 10.45-3.88q0 0 0 0 0 0 0 0zm-3.21 11.07q-0.01 0-0.03 0.01 0.03-0.01 0.05-0.01-0.01 0-0.02 0zm-1.17 0.28q-0.01 0-0.02 0 0.01 0 0.02 0 0.04-0.01 0.09-0.02-0.05 0.01-0.09 0.02zm-2.12 53.08q0.04-0.12 0.08-0.25 0.03-0.06 0.05-0.12-0.06 0.18-0.13 0.37zm-3.05-56.76q-2.27 0.51-4.66 0.9 2.39-0.39 4.66-0.9 1.02-0.23 2.05-0.41-1.03 0.18-2.05 0.41zm-0.89 4.86q-0.19 0.03-0.38 0.06 0.5-0.08 1-0.16-0.31 0.05-0.62 0.1zm-13.74-21.04c0.04 5.38-0.16 11.23 3.21 13.17-3.37-1.94-3.17-7.79-3.21-13.17zm-0.7-12.18c-0.89-5.45-1.11-11.99-1.17-18.34 0.06 6.35 0.28 12.89 1.17 18.34q0.2 3.43 0.4 6.86-0.2-3.43-0.4-6.86zm-0.18-37.93c-0.92 2.21-1.03 6.65-1.02 10.27-0.01-3.62 0.1-8.06 1.02-10.27zm-4.59 73.85q-0.01 0-0.03 0 0.02 0 0.03 0 0.03-0.01 0.05-0.01-0.02 0-0.05 0.01zm-2.58 0.36q-0.1 0.01-0.21 0.03 0.17-0.02 0.33-0.04-0.06 0.01-0.12 0.01zm-0.93 0.1q-0.04 0.01-0.08 0.01 0.15-0.01 0.3-0.03-0.11 0.01-0.22 0.02zm-7.15-83.94c6.01 0.05 11.96 0.27 17.49 0.89-5.53-0.62-11.48-0.84-17.49-0.89zm3.31 84.2q-0.04 0-0.07 0 0.51-0.01 1.01-0.04-0.47 0.03-0.94 0.04zm-1.02 0.01q-0.01 0-0.02 0-0.03 0-0.07 0 0.3 0 0.59-0.01-0.25 0.01-0.5 0.01zm-1.91-0.05q-0.09 0-0.18-0.01 0.17 0.01 0.34 0.02-0.08-0.01-0.16-0.01zm-1.18-0.09q-0.05 0-0.09-0.01 0.12 0.01 0.24 0.02-0.08 0-0.15-0.01zm-9.78-84.41c1.82-2.11 4.54-3.04 7.73-3.41-3.19 0.37-5.91 1.3-7.73 3.41zm6.51 83.82q-0.02-0.01-0.03-0.01 0.01 0 0.03 0.01 0.41 0.12 0.84 0.21-0.43-0.09-0.84-0.21zm-3.98-80.9q-0.48 0.65-0.91 1.48 0.43-0.83 0.91-1.48c0.66-0.89 1.45-1.31 2.36-1.62-0.91 0.31-1.7 0.73-2.36 1.62zm1.38 79.83q0-0.01 0-0.01 0 0.01 0 0.01 0 0 0 0zm-5.15-6.28q-0.03-0.08-0.06-0.16 0.12 0.31 0.25 0.61-0.1-0.22-0.19-0.45zm-0.41-1.15q-0.02-0.07-0.04-0.13 0.07 0.23 0.15 0.45-0.06-0.16-0.11-0.32zm-0.23-0.74q-0.02-0.1-0.05-0.21 0.08 0.29 0.16 0.57-0.05-0.18-0.11-0.36zm3.02-132.65q0.05 0 0.12 0.01-0.07-0.01-0.12-0.01-2.24 0.35-4.48 0.7 2.24-0.35 4.48-0.7zm-8.42 4.43q-1.51-1.12-3.02-2.25-0.28-0.16-0.56-0.32-0.6-0.32-1.2-0.62-0.53-0.25-1.05-0.5c0.93 0.45 1.89 0.88 2.81 1.44q2.71 2.02 5.42 4.04zm12.42-2.93q-0.65-0.29-1.26-0.55 0.61 0.26 1.26 0.55zm2.66 1.24q-0.6-0.3-1.25-0.6 0.65 0.3 1.25 0.6zm5.98 14.07q2.63 1.74 5.27 3.48-2.39-1.58-4.78-3.16-0.25-0.16-0.49-0.32-3.33-1.71-6.66-3.42 3.33 1.71 6.66 3.42zm-4.47-13.32q-0.38-0.19-0.82-0.41 0.44 0.22 0.82 0.41zm2.28 4.96l1.19 2.59q-0.59-1.29-1.19-2.59-0.5-2.09-1-4.18 0.5 2.09 1 4.18zm12.34 15.32q1.69 15.58 3.38 31.15-0.09-0.8-0.18-1.6-1.6-14.77-3.2-29.55c-1.18-0.35-2.09-1.04-2.94-1.77 0.85 0.73 1.76 1.42 2.94 1.77zm-2.39-56.12q-0.05 0.06-0.1 0.1 0.05-0.04 0.1-0.1 1.69 0.35 3.38 0.7 1.89 21.94 3.78 43.88-1.89-21.94-3.78-43.88-1.69-0.35-3.38-0.7zm14.33 100.7c-1.37-0.2-3.58-0.39-5.19-0.08 1.61-0.31 3.82-0.12 5.19 0.08zm-1.79-40.4q1.64-0.16 3.28-0.33-1.64 0.17-3.28 0.33zm10.05 34.13c-2.85-1.36-6.32-1.21-9.95-1.89 3.63 0.68 7.1 0.53 9.95 1.89zm-3.67-33.57q0 0 0 0-0.09-0.12-0.18-0.23 0.09 0.11 0.18 0.23zm0.12 0.16q0.07 0.1 0.14 0.21-0.07-0.11-0.14-0.21 0 0 0 0zm1.33 2.48q-0.17-0.36-0.37-0.77 0.2 0.41 0.37 0.77zm0.33 0.59q2.28 3.03 4.57 6.07 0.01 0.35 0.03 0.7v0.03q-0.01-0.37-0.03-0.73-0.12-0.16-0.23-0.32-2.17-2.88-4.35-5.75-0.04-0.08-0.09-0.17 0.05 0.09 0.1 0.17zm5.05 10.28q-0.09-0.27-0.18-0.54-0.03-0.13-0.06-0.26 0.11 0.41 0.24 0.8zm-0.88 56.28q-0.1-0.15-0.19-0.3 0.09 0.15 0.19 0.3 0.45 4.08 0.9 8.16-0.45-4.08-0.9-8.16zm-12.44-20.49q0.42-0.06 0.8-0.2h10.55q0.15 3.13 0.3 6.27-0.15-3.14-0.3-6.27h-10.55q-0.38 0.14-0.8 0.2zm-0.89 20.49c0.47 0.07 1.24 0.13 2.17 0.16-0.93-0.03-1.7-0.09-2.17-0.16-0.93-0.13-3.28-0.2-3.68 0.3 0.4-0.5 2.75-0.43 3.68-0.3zm-4.1-3.59c-0.1-0.65-0.17-1.43-0.22-2.26 0.05 0.83 0.12 1.61 0.22 2.26zm-0.28-7.35q0 0.21 0 0.46 0-0.25 0-0.46c1-0.45 2.16-0.57 3.4-0.55-1.24-0.02-2.4 0.1-3.4 0.55zm19.3 34.64c0-0.65-0.11-1.19-0.39-1.41q-0.15-0.05-0.3-0.1 0.15 0.05 0.3 0.1c0.28 0.22 0.39 0.76 0.39 1.41zm-0.49-12.35h-1.59q-7.86 0.54-15.73 1.09 7.87-0.55 15.73-1.09h1.59c0.33 0.7 0.46 1.69 0.5 2.77-0.04-1.08-0.17-2.07-0.5-2.77zm-68.92-117.07c1.91 2.17 3.44 4.94 5.63 6.62-2.19-1.68-3.72-4.45-5.63-6.62zm5.12 302.53q-0.27-0.04-0.54-0.06l-0.1 0.15q0.05-0.07 0.1-0.15 0.27 0.02 0.54 0.06zm-0.74 19.94q-1.1 2.19-2.19 4.38c-0.59 0.84-1.57 1.51-1.89 2.59 0.32-1.08 1.3-1.75 1.89-2.59q1.09-2.19 2.19-4.38c0.44-1.14 0.79-2.46 1.03-3.87-0.24 1.41-0.59 2.73-1.03 3.87zm30.15-19.5q-1.08 1.48-2.22 2.91 1.14-1.43 2.22-2.91 0.25-0.34 0.51-0.68-0.26 0.34-0.51 0.68zm-47.17 19.8q0.63 0.15 1.31 0.41-0.68-0.26-1.31-0.41zm-9.03-11.75q1.05-0.45 2.21-0.76-1.16 0.31-2.21 0.76zm-1.83 0.99q-1.43 0.93-2.37 2.21c-0.3 0.4-0.64 0.93-0.91 1.55 0.27-0.62 0.61-1.15 0.91-1.55q0.94-1.28 2.37-2.21zm-2.67-12.62c-1.21 0.74-2.43 1.92-3.33 3.28 0.9-1.36 2.12-2.54 3.33-3.28q1.69-1.03 3.5-1.47-1.81 0.44-3.5 1.47zm7.26 63.09c-0.2-0.36-0.55-0.61-1.01-0.78 0.46 0.17 0.81 0.42 1.01 0.78q0.09 0.23 0.09 0.43 0-0.2-0.09-0.43zm-10.96 20.91q0.84-0.06 1.51-0.32 1.15 0.05 2.29 0.1-1.14-0.05-2.29-0.1-0.67 0.26-1.51 0.32zm31.26 33.41h1.2q0.05 3.44 0.1 6.87-0.05-3.43-0.1-6.87h-1.2q-21.39 0.5-42.78 1-5.23 0.05-10.45 0.1 5.22-0.05 10.45-0.1 21.39-0.5 42.78-1zm1.2-9.93q-0.01 0.54-0.1 1.11 0.09-0.57 0.1-1.11zm-37.46-5.28c-1 0.52-1.91 0.92-2.54 0.99q-0.1-0.15-0.2-0.3 0.1 0.15 0.2 0.3c0.63-0.07 1.54-0.47 2.54-0.99zm-21.05 17.6q0.05-0.42 0.13-0.71-0.08 0.29-0.13 0.71zm0.5-79.1q0-0.49 0-1.03 0 0.54 0 1.03zm6.82-347.9q1.55-0.4 3.09-0.8 0.01 0 0.03 0-0.02 0-0.03 0-1.28 0.33-2.56 0.66-0.26 0.07-0.53 0.14 0 0-0.01 0 0.01 0 0.01 0zm11.36 0.69q-0.01 0-0.01 0-0.01-0.01-0.02-0.01 0.01 0.01 0.03 0.01zm0.32 0.08q0 0 0 0l-0.02-0.01q0.01 0.01 0.02 0.01zm2.7 315.01c0.21 1.08 0.57 2.1 1.02 2.97-0.45-0.87-0.81-1.89-1.02-2.97zm-1.74-314.79q5.3 0.91 10.6 1.81-4.26-0.72-8.52-1.45-1.04-0.18-2.08-0.36-0.01 0-0.02 0 0.01 0 0.02 0zm29.85 3.88q0.21 0.04 0.42 0.07-0.21-0.03-0.42-0.06-0.45-0.08-0.91-0.14c-1.84-0.27-3.77-0.35-5.73-0.42 2.29 0.08 4.54 0.16 6.64 0.55zm0.82 0.11q0 0 0 0-0.02-0.01-0.04-0.01 0.02 0 0.04 0.01zm60.42 314.16c1.5 2.47 2.61 5.18 3.63 7.99-1.02-2.81-2.13-5.52-3.63-7.99-0.78-1.26-1.7-2.41-2.7-3.47 1 1.06 1.92 2.21 2.7 3.47zm24.12 37.71c-7.14-4.16-12.22-10.18-15.9-17.83 3.68 7.65 8.76 13.67 15.9 17.83zm9.21 4.28q0.05 0.2 0.1 0.4-0.05-0.2-0.1-0.4-1.63-0.7-3.25-1.39 1.62 0.69 3.25 1.39zm-147.5-355.06c-3.41 1.72-9.12 1.44-13.44 2.19q-0.02 0-0.05 0.01 0.03-0.01 0.05-0.01c4.32-0.75 10.03-0.47 13.44-2.19q0.63-0.32 1.26-0.67-0.63 0.35-1.26 0.67zm-58.27 418.54c-0.18 0.91-0.33 2.59-0.31 4.14-0.02-1.55 0.13-3.23 0.31-4.14q29.15 0.65 58.3 1.3-29.15-0.65-58.3-1.3zm40.3 6.78q0.3-0.01 0.59-0.01-0.29 0-0.59 0.01zm-40.2-18.29q-0.12 0.76-0.1 1.58-0.02-0.82 0.1-1.58zm21.39-43.01q-0.05 0.1-0.1 0.2 0.05-0.1 0.1-0.2 0.33-0.15 0.66-0.3-0.33 0.15-0.66 0.3zm-9.45-38.81q-0.11-0.36-0.08-0.68-0.03 0.32 0.08 0.68zm-0.81-25.41q-0.4 0.43-0.72 0.89 0.32-0.46 0.72-0.89zm-1.38 2.42q-0.1-0.09-0.2-0.19 0.1 0.1 0.2 0.19zm10.78-301.63q0.07 0.01 0.13 0.01-0.14-0.01-0.29-0.02 0.08 0 0.16 0.01zm6.09 0.8q4.43 0.25 8.86 0.5 0.01 0 0.02 0-0.01 0-0.02 0-4.43-0.25-8.86-0.5-0.03 0-0.07-0.01 0.04 0.01 0.07 0.01zm2.86 393.11c-0.52-2.73-0.95-6.91-1.09-8.95 0.14 2.04 0.57 6.22 1.09 8.95zm10.61 9.32q-0.09 0.25-0.19 0.5h-0.1q-1.94-0.97-3.88-1.94 1.94 0.97 3.88 1.94h0.1q0.1-0.25 0.19-0.5zm1.75-401.4q-0.01 0-0.02 0h-0.02q0.02 0 0.04 0zm-43.74 321.79c-1.04-2.65-1.51-6.25-1.48-9.84-0.03 3.59 0.44 7.19 1.48 9.84q1.1 2.19 2.19 4.38-1.09-2.19-2.19-4.38zm-3.78 2q-0.51-1.01-0.97-2.17 0.46 1.16 0.97 2.17 0.2 0.39 0.48 0.87-0.28-0.48-0.48-0.87zm3.68-21.85q-0.04-0.07-0.09-0.15h-0.5 0.5q0.05 0.08 0.09 0.15zm-11.74-5.02q-0.23-0.31-0.47-0.66 0.24 0.35 0.47 0.66c0.84 1.09 1.94 1.99 3.09 2.82-1.15-0.83-2.25-1.73-3.09-2.82zm-3.41-10.23q0.01 1.4 0.28 2.81-0.27-1.41-0.28-2.81zm-17.26-15.15q0.83-1.11 1.72-2.2-0.89 1.09-1.72 2.2zm-5.1 26.67c-4.39 4.07-9.93 7.21-13.13 12.44q-0.43 0.71-0.84 1.45 0.41-0.74 0.84-1.45c3.2-5.23 8.74-8.37 13.13-12.44 0.62 0.42 1.36 1.59 2.04 2.77q0 0 0 0c-0.68-1.18-1.42-2.35-2.04-2.77zm29.31-291.65q0.11-0.13 0.23-0.25 0.31-0.34 0.64-0.69-0.45 0.47-0.87 0.94zm-15.22 216.4q-1.35-0.32-2.68-0.66 1.33 0.34 2.68 0.66 5.33 0.39 10.65 0.79-5.32-0.4-10.65-0.79zm-7.33-198.23q-0.01 0-0.03 0.01-1.76 0.73-3.51 1.46-3.87 1.61-7.73 3.22-1.44 0.31-2.89 0.62-0.64 0.14-1.29 0.28 2.09-0.45 4.18-0.9 5.62-2.34 11.24-4.68 0.02-0.01 0.03-0.01 0.93-0.55 1.84-1.11 1.07-0.65 2.11-1.31-1.92 1.22-3.95 2.42zm1.31 196.63q-0.29-0.09-0.59-0.19 0.51 0.16 1.01 0.31-0.21-0.06-0.42-0.12zm-2.24 4.08q-0.32-0.05-0.62-0.12 0.3 0.07 0.62 0.12zm-2.32-0.68q-0.02 0-0.03-0.01 0.12 0.05 0.25 0.1-0.11-0.04-0.22-0.09zm-1.11-5.36q-0.96-0.38-1.9-0.79 1.44 0.61 2.93 1.17-0.52-0.19-1.03-0.38zm-3.33 8.43q-0.42-0.08-1.04-0.29 0.62 0.21 1.04 0.29 1.08-0.28 2.16-0.56-1.08 0.28-2.16 0.56zm3.38-209.16q0.2-0.72 0.4-1.44-0.2 0.72-0.4 1.44-0.8 1.65-1.59 3.29 0.79-1.64 1.59-3.29zm10.16-8.98q0.25-0.16 0.51-0.31-0.26 0.15-0.51 0.31 0 0 0 0zm1.98-0.97q4.08-0.59 8.16-1.19 0.2 0.1 0.4 0.2-0.2-0.1-0.4-0.2-2.23 0.33-4.46 0.65-1.85 0.27-3.7 0.54 0 0 0 0 0 0 0 0zm-39.9 26.37q-0.01 0.01-0.03 0.03 0.02-0.02 0.03-0.03c1.86-1.45 4.9-1.9 7.86-2.32-2.96 0.42-6 0.87-7.86 2.32zm-3.86 5.34q0.09-0.18 0.18-0.36 0.01-0.02 0.02-0.03-0.1 0.19-0.2 0.39zm-2.51 4.61q-0.6 0.91-1.21 1.8 0.61-0.89 1.21-1.8zm-2.02 2.96q-0.56 0.8-1.13 1.59 0.57-0.79 1.14-1.6-0.01 0.01-0.01 0.01zm-0.95 136.29q-0.46-0.72-0.91-1.43c-2.69-4.04-5.72-7.3-8.66-10.95q-0.1-0.13-0.22-0.29 0.12 0.16 0.22 0.29c2.94 3.65 5.97 6.91 8.66 10.95q0.82 1.29 1.63 2.58-0.36-0.57-0.72-1.15zm-10.55-13.7q0.05 0.06 0.09 0.12 0.02 0.03 0.04 0.06-0.06-0.09-0.13-0.18zm-2.8-2.56q0.54 0.17 1.04 0.58-0.5-0.41-1.04-0.58zm-12.17-61.55q0.03-0.06 0.07-0.13 0.4-0.7 0.81-1.39-0.45 0.75-0.88 1.52zm-2.16 4.43q-0.5 1.26-0.8 2.72 0.3-1.46 0.8-2.72 0.3-0.71 0.61-1.4-0.31 0.69-0.61 1.4zm317.96 17.71q-0.02 0.07-0.04 0.13 0.07-0.24 0.12-0.47-0.04 0.16-0.08 0.34z"/>
		<path id="Path 3429" fill-rule="evenodd" class="s1" d="m2891.46 2993.96c-2.76 2.19-5.51 3.96-9.09 3.29-2.86-0.53-5.71-1.67-8.5-2.23-6.22-1.25-12.32 0.79-15.24 6.5-0.82 1.62-2.42 5.44-1.16 7.07 1.9-1.32 4.34-1.99 6.43-2.99 1.72-0.82 3.37-1.92 5.28-1.73 5.32 0.53 9.39 3.65 13.9 6.2 6.85 3.87 14.12 4.72 21.87 5.07 6.1 0.27 12.66-0.66 18.27-3.03 2.92-1.23 5.79-2.98 8.34-4.87 1.72-1.27 4.08-4.09 6.4-3.86-0.24 1.99 6.1 4.59 7.58 5.36 5.11 2.67 10.41 5.06 16.17 5.95 6.67 1.03 13.54 0.14 20.06-1.35 5.5-1.25 10.15-1.98 15.08-5 1.68-1.02 3.39-2.39 5.1-3.23 3.1-1.52 5.11-0.76 8.07 0.53 0.58 0.25 1.26 0.25 1.82 0.5 0.62 0.27 1.05 0.93 1.59 1.21 1.29 0.69 3.06 0.78 4.46 1.21 0.87-1.11 0.28-3.99 0.15-5.35-0.43-4.33-3.61-6.33-7.45-7.91-1.64-0.67-2.72-0.73-4.52-0.74-2.27 0-4.56 1.14-6.84 0.64-2.44-0.54-4.93-2.04-7.29-2.93-9.38-3.53-19.92-1.66-29.62-0.88-12.26 0.99-24.59 1.92-36.9 1.66-6.97-0.14-13.57-1.25-20.45-1.93-4.97-0.5-9.84 1.86-13.51 2.84z"/>
		<path id="Path 3430" fill-rule="evenodd" class="s0" d="m3078.83 3101c-6.77-2.97-11.7-8.46-15.42-14.53-4.57-7.46-6.04-17.68-10.85-24.88-2.43-3.64-6.24-6.65-9.65-9.35q-2.09-1.79-4.18-3.58c2.48-3.86 2.65-11.76 0.9-16.62-2.17-5.99-8.38-13.95-12.94-17.61q-2.74-2.29-5.47-4.58c-0.93-0.97-1.05-7.3-2.09-9.05-1.8-3.02-4.19-5.84-7.66-7.17-5.2-1.98-16.17-0.32-19.71 2.19-2.55-0.42-6.09-3.77-8.06-0.7 0.16 2.34 2.09 1.86 3.39 2.99-2.78 2.95-12.78 5.85-17.61 7.06-0.13 0.26-0.18 0.35-0.2 0.8 2.95 0.8 8.47-0.62 10.84-1.19 5.36-1.29 9.16-3.97 13.83-5.87 2.85-1.16 6.16-1.68 9.46-2.29 6.05-1.14 9.89 2.04 12.04 5.27 0.59 0.9 2 3.41 1.59 4.78v0.2q-2.94-1.55-5.87-3.09c-0.89-0.61-1.47-1.41-2.79-1.69-3.7-0.8-11.89 3.47-14.13 4.78-5.7 3.32-12.56 4.94-20.2 6.36q-2.39 0.1-4.77 0.2h-5.38q-3.13-0.45-6.27-0.89c-4.15-1.15-8.52-3.21-12.04-5.28-2.8-1.65-5.02-5.43-9.25-4.77-2.22 0.34-3.55 2.95-5.27 3.98-5.9 3.52-16.95 8.77-27.47 6.96-8.88-1.52-16.25-2.8-22.68-6.56-2.25-1.32-10.41-5.57-14.13-4.78-1.32 0.28-1.9 1.08-2.79 1.69q-2.93 1.54-5.87 3.09c-0.72-6.25 7.15-11.6 14.33-10.15 3.03 0.61 6.09 1.11 8.76 2.19 7.6 3.06 13.4 7.26 24.57 7.16q0.05-0.35 0.1-0.7c-2.88-1.69-7.13-2.02-10.25-3.28-2.65-1.07-4.88-2.82-7.46-3.78q-0.05-0.1-0.1-0.2c1.28-1.14 3.13-0.64 3.38-2.89-1.68-3.97-5.97 0.99-8.06 0.6q-1.54-0.65-3.08-1.29c-3.89-1.22-7.85-1.86-13.04-1.79l-3.58 0.89c-3.44 1.31-6.52 4.46-7.96 7.76-0.72 1.66-0.79 7.41-1.79 8.46q-2.74 2.29-5.47 4.58c-4.57 3.67-9.97 10.51-12.34 16.32-1.15 2.81-2.52 7.64-1.69 11.84 0.43 2.19 1.23 4.16 1.99 6.07-4.72 4.83-10.9 8.1-14.53 14.03-5.52 9-7.25 21.07-13.73 29.15-2.9 3.61-7.38 7.2-11.84 9.16-2.67 1.16-8.76 3.02-9.95 5.37 0 3.01 3.96 4.53 5.97 5.67 3.61 2.05 7.16 3.85 11.94 4.98 2 0.47 4.08 0.1 6.37 0.49 1.68 0.29 4.28 0.65 6.27 0.3 3.44-0.6 7.05-0.95 9.95-2.09 7.43-2.91 13.09-6.91 22.29-8.45 5.33-0.9 9.87 1 13.43 2.08 5.35 1.64 10.14 3.36 15.62 4.58 7.78 1.73 14.26-1.51 19.8-3.38q0.3 0.05 0.6 0.1 0.15 0.79 0.3 1.59c-6.11 2.28-3.81 9.28 1.89 10.35 0.39 0.66 0.83 2.42 0.59 3.28-5.08 1.24-6.13 7.16-1.79 9.95 0.94 0.61 2.46 0.59 3.78 0.8 1.28 2.57 1.03 7.45 1.6 10.65v0.09c-1.13 0.21-2.73-0.62-3.88-0.89-2.77-0.65-6.94-1.27-10.45-0.7-11.95 1.94-19.59 9.03-14.13 21.99-0.79 0.43-1.7 0.8-1.99 1.69-0.65 1.97-0.36 9.49 0.79 10.15 1.05 0.6 5.98 0.3 7.57 0.3q9 0.1 18.01 0.2 14.92 0.15 29.85 0.3c2.33 0.36 5.08-0.48 6.96-0.3 3.16 0.31 7 0.2 10.55 0.2q3.28-0.05 6.57-0.1 5.92-0.05 11.84-0.1 16.27-0.15 32.54-0.3c2.49-0.61 2.37-11.22-0.4-11.84-0.33-0.96 1.19-3.35 1.49-4.67 0.42-1.83 0.43-4.19 0-5.97-1.65-6.9-7.19-9.81-14.43-11.25-1.8-0.36-5.02-0.67-7.26-0.3-2.9 0.49-5.72 1.38-8.36 1.69q-0.05-0.04-0.1-0.1 0.7-5.27 1.4-10.54c1.34-0.7 3.27-0.45 4.37-1.3 2.05-1.56 3.5-6.09 0.9-8.16-0.85-0.67-1.9-0.93-2.89-1.49-0.56-0.42 0-2.34 0.2-3.08 1.29-0.68 2.81-0.74 3.78-1.69 2.52-2.48 2.7-8.04-1.59-8.76-0.13-0.48-0.03-1.08 0.2-1.49q0.1-0.15 0.2-0.3c1.89 0.14 3.44 1.09 4.97 1.69 3.62 1.42 8.91 2.85 14.03 1.89 6.04-1.13 11.12-3.01 16.82-4.78 3.88-1.2 9.11-3.02 14.83-1.99 7.91 1.44 13.56 5.38 20.1 8.06 2.89 1.19 6.38 1.63 9.85 2.29 2.17 0.42 5.18 0.13 7.16-0.2q2.59-0.15 5.18-0.29c4.79-0.99 8.54-2.51 12.04-4.58 2.54-1.51 5.73-2.7 7.06-5.37-0.02-3-7.49-5.19-9.95-6.27zm-104.28 2.98c-0.58 2.52-0.42 5.52-1.49 7.66-0.39 0.49-7.38 0.5-9.06 0.5-8.04 0-15.92 0.69-24.28 0.5-0.6-1.2-0.2-3.98-0.2-5.57v-13.34c0-2.6 0.23-6.52-2.58-5.67-1.59 0.74-1.3 3.99-1.3 6.27v18.11c-2.13 0.98-6.71 0.3-9.45 0.3q-12.04-0.45-24.08-0.9c-1.73-7.3-2.44-14.77-3.88-22.59-0.75-4.05-1.97-8.32-1.89-13.13 0.9-0.33 5.83 1.49 7.56 1.79 5.57 0.97 8.21-5.04 6.37-9.75 0.14-0.71 3.21-3.17 3.88-4.88 1.26-3.21 0.08-7.1-1.29-9.15q-0.85-1.05-1.69-2.09c0.56-0.71 1.39-1.2 1.79-2.09 1.4-3.19-0.75-6.23-2.09-7.96-3.65-4.7-11.21-7.42-18.91-4.38h-0.4c-0.35-4.26 0.72-14.39-2.19-15.82-3.36-1.65-11.68 3.23-14.03 4.38-4.85 2.38-10.85 5.31-13.53 9.85-2.79 4.73-0.24 12.06 2.19 15.22 1.32 1.72 3.27 2.96 5.08 4.18-0.63 2.02-2.39 3.56-2.99 5.97-1.24 5.04 0.76 10.53 1.49 14.73q-0.05 0.1-0.1 0.2c-4.29-1.51-6.85-4.51-10.05-7.07-5.87-4.7-11-10.87-15.12-17.31-1.48-2.31-3.21-4.43-4.18-7.26-1.69-4.94 1.06-12.49 2.89-15.43 3.77-6.07 9.42-11.95 15.12-16.12 2.74-2 9.64-5.06 11.24-7.56 3.52 0 6.06 1.84 8.36 3.19q4.78 2.33 9.55 4.67c8.01 3.26 23.8 5.45 33.74 2.39 4.1-1.26 8.16-3.33 11.64-5.37 2.51-1.47 4.95-2.55 6.67-4.78h0.39q1.75 1.54 3.49 3.09c3.52 2.5 10.47 5.71 14.92 7.06 8.81 2.67 21.73 1.38 29.65-1.09 4.95-1.55 9.45-3.55 13.64-5.97 2.3-1.34 4.84-3.21 8.35-3.19 1.56 2.47 8.55 5.59 11.25 7.56 5.14 3.77 11.2 9.88 14.63 15.33 1.98 3.15 5.24 10.76 3.38 16.22-1.59 4.63-4.89 8.3-7.56 11.94-5.77 7.85-12.76 15.01-21.7 19.7h-0.1q-0.04-0.05-0.09-0.1c0.54-4.36 2.76-9.65 1.49-14.83-0.6-2.43-2.11-3.92-2.99-5.87q1.4-0.99 2.79-1.99c1.34-1.03 2.6-2.59 3.48-4.08q0.85-2.04 1.69-4.08c2.97-11.07-6.57-15.04-12.93-18.5-3.26-1.78-6.91-3.66-10.65-4.88-1.5-0.49-3.95-0.79-5.17 0.1-2.2 1.6-1.42 11.69-1.7 15.52q-2.83-0.54-5.67-1.09c-6.7-1.08-10.98 2.26-13.73 5.57-2.24 2.71-3.84 7.28-0.2 9.85-0.43 1.57-2.21 2.76-2.88 4.38-1.4 3.37-0.15 7.54 1.49 9.65q1.14 0.9 2.29 1.79c-0.17 1.74-1.01 3.75-0.4 5.77 1.75 5.86 9.2 4.38 14.03 2.39 0.73 0.77-0.32 7.46-0.6 8.76q-1.69 9.65-3.38 19.3zm105.37 5.57c-6.26 3.73-17.84 6.08-27.36 3.59-3.44-0.9-6.4-2.57-9.15-4.18-4.26-2.5-10.06-4.58-15.63-5.58-5.7-1.02-11.41 0.61-15.32 1.8-5.81 1.76-11.15 3.67-17.11 4.87-5.13 1.03-10.12-0.78-13.74-2.19-1.19-0.47-2.39-1.12-3.98-1.19-0.47-1.09 0.22-3.62 0.5-4.98q1.2-6.61 2.39-13.23 0.05-0.15 0.1-0.3c3.27 0.72 5.58 1.22 8.76-0.3q1.44-0.84 2.88-1.69c4.2 2.96 9.55 0.42 11.84-2.59q1.15-1.79 2.29-3.58 2.09-0.7 4.18-1.39 4.03-2.54 8.06-5.08c4.74-3.62 9.36-8.34 12.94-13.13q2.63-3.93 5.27-7.86 1.74 1.49 3.48 2.98c3.58 2.77 7.36 5.54 9.75 9.46 3.28 5.35 4.67 11.86 7.37 18.01 4.4 10.05 10.97 17.52 21.09 21.89q2.44 1.04 4.88 2.09 0.05 0.2 0.1 0.39c-0.88 1.04-2.38 1.48-3.59 2.19zm-95.12-34.23c-3.4-4.78-15.52 2.09-16.92-2.78-0.55-1.92 0.47-3.68 1.2-4.68 3.17-4.35 11.28-5.79 17.31-3.28h0.1v-0.1c-2.28-3.97-9.12-5.38-14.43-3.09-1.89 0.82-3.26 2.34-4.97 3.29-5.83-3.05-1.99-9.38 1.69-11.64 6.09-3.75 13.66-1.25 18.9 1.09 0.54-1.04-2.59-3.31-3.48-3.88-5.71-3.7-13.1-2.53-18.51 0.4-1.25-1.17-0.5-3.58 0.2-4.68 1.41-2.2 3.58-4.1 6.17-5.07q1.15-0.2 2.29-0.4c13.6-0.05 19.67 9.89 21.99 21.09 2.32 11.18-4.17 25.1-14.82 22.89-0.77-1.34 0.51-6.32 0.79-8.06 0.83 0.18 1.75 0.61 2.69 0.89h0.5c0.12-0.95-0.26-1.37-0.7-1.99zm18.9-21.99q-0.24 0.05-0.49 0.1-1.45-0.49-2.89-0.99-1.24-0.05-2.49-0.1-0.89-1.79-1.79-3.58c-1.72-2.82-5.79-7.75-8.85-9.06-0.67-0.94-0.32-13.81 0.49-14.82 6.69 2.51 18.49 7.09 22.09 12.23 3.9 5.57-2.26 14.55-6.07 16.22zm-27.96 64.28c-1.45 2.6-4.82 0.91-8.06 1.4q-14.08 0.29-28.16 0.59-0.05-1.79-0.1-3.58c1.57-0.7 6.34-0.2 8.46-0.2 5.11 0 10.38 0.34 15.33-0.4 2.58-0.38 5.99 0.43 8.16-0.39 1.83-0.05 4.04-0.05 4.67 1.09 0.23 0.62-0.07 1.08-0.3 1.49zm-36.32 8.56v-3.38q5.33 0.1 10.65 0.2 10.6-0.1 21.2-0.2 0.05 0.05 0.1 0.1-0.25 1.29-0.5 2.58h-16.42q-2.04 0.1-4.08 0.2h-4.18q-3.38 0.25-6.77 0.5zm35.13 3.88c0.97 2.79-3.96 3.5-6.77 3.09q-3.28 0.15-6.56 0.29h-21.8q-0.04-2.04-0.09-4.08c1.8-0.79 5.14 0.17 7.56-0.19q8.46-0.15 16.91-0.3c2.08-0.31 4.84 0.5 6.57-0.2 1.94-0.06 3.59 0.08 4.18 1.39zm21.09 24.68c1.27 1.73 2.36 4.39 1.7 7.46-0.48 2.22-1.65 3.83-2.39 5.67q-27.86 0.5-55.72 1 0.05-15.97 0.1-31.94c1.82-0.47 5.16-0.19 7.06 0.1h14.13c1.99-0.07 4.5 0.32 6.07-0.3q1.14 0.05 2.29 0.1c0.32 0.4 0.06 2.06-0.1 2.78-0.59 2.67-0.54 6.36-1.29 8.96-3.06 1.82-8.53 3.96-10.05 7.06l-0.1 0.3q0.1 0.15 0.19 0.3c1.81-0.19 5.81-3.04 7.87-3.88 8.92-3.66 24.41-5.59 30.24 2.39zm1.99 22.59c-0.94 0.42-2.88 0.19-4.17 0.19q-6.32-0.05-12.64-0.09-20.75-0.1-41.49-0.2c-0.4-0.85-0.52-4.28-0.1-5.28 0.5-0.63 2.8-0.4 3.88-0.4q5.22-0.05 10.44-0.09 21.4-0.5 42.79-1h1.2q0.05 3.43 0.09 6.87zm-66.17-0.1h-12.93q-20.4 0.15-40.8 0.29c-0.63-1.37-0.41-5.46-0.1-7.06q29.16 0.65 58.31 1.29 0.05 2.64 0.1 5.28c-1.04 0.46-3.18 0.2-4.58 0.2zm-51.94-22.49c5.82-7.97 21.35-6.07 30.25-2.39q3.88 1.94 7.76 3.88h0.1q0.1-0.25 0.2-0.5c-1.44-2.51-6.86-6.01-9.95-6.96-0.86-1.46-1.68-9.68-1.79-11.94l0.2-0.1q4.43 0.2 8.86 0.4 10.3-0.15 20.59-0.3 0.1 16.02 0.2 32.04-27.86-0.5-55.72-1c-0.75-1.84-1.91-3.45-2.39-5.67-0.66-3.07 0.43-5.73 1.69-7.46zm21-24.68c0.91-0.97 1.31-0.85 2.78-1.39 10.86 0.04 21.53 0.69 32.34 0.5 0.43 0.91 0.23 2.91 0.2 4.18-1.92 0.68-5.19 0.08-7.56 0.09h-14.33q-3.28-0.14-6.57-0.29c-3.41 0.51-6.73-0.18-6.86-3.09zm35.22-7.26v3.38c-6.72-0.07-13.7-0.6-20.89-0.6q-5.18-0.05-10.35-0.1-0.15-0.05-0.3-0.1-0.2-1.19-0.4-2.38v-0.1h4.38c3.32 0.49 6.7-0.39 9.95 0.1q8.81-0.1 17.61-0.2zm-36.71-6.67q0.05-0.1 0.1-0.2 0.99-0.45 1.99-0.89 9 0.39 18.01 0.79h16.41c0.38 0.81 0.23 2.54 0.2 3.68q-5.32-0.1-10.64-0.2-2.14 0.06-4.28 0.1-6.67-0.19-13.34-0.39c-3.64-0.55-8.34 1.59-8.45-2.89zm-4.18-8.85c-3.36 1.3-6.51 2.28-10.65 2.98-3.72 0.63-7.26-0.88-9.85-1.69-3.82-1.19-7.67-2.16-11.64-3.38-3.5-1.08-8.4-2.79-13.63-1.9-6.22 1.07-10.24 2.44-15.13 4.58q-4.13 2.14-8.26 4.28c-5.15 2.09-14.06 2.79-20.69 1.29q-3.49-1.04-6.97-2.09-3.08-1.84-6.17-3.68-0.1-0.29-0.2-0.59c8.36-3.61 15.77-7.37 20.7-14.33 5.59-7.9 7.57-19.32 12.73-27.76 3.21-5.23 8.75-8.37 13.14-12.44 1.15 0.77 2.68 4.1 3.58 5.37 2.62 3.7 5.67 7.11 8.76 10.35 3.51 3.68 7.98 6.85 12.44 9.55 1.65 1 4.08 1.08 5.77 2.19q0.69 1.14 1.39 2.29c1.6 2.43 4.7 6.1 9.35 5.27q1.7-0.64 3.39-1.29c0.96-0.13 2.74 1.56 3.78 1.99 2.53 1.05 5.4 0.67 7.76-0.1q0.1 0.05 0.2 0.1 1.54 9.1 3.08 18.21-1.44 0.4-2.88 0.8zm-7.37-53.14c5.37-2.47 13.2-4.83 19.21-0.9 3.58 2.35 7.04 8.5 1.39 11.45-3.42-1.93-5.42-4.38-11.04-4.38-1.38 0-2.63-0.03-3.59 0.4-2.02 0.9-3.09 2.25-4.67 3.48q-0.05 0.15-0.1 0.3v0.1c1.75-0.5 3.59-1.11 5.67-1.4 5.55-0.75 14.56 3.66 12.94 9.36-1.13 3.94-10.08 0.23-14.03 1.19-1.53 0.37-4.17 1.47-3.59 3.39v0.19c1.38-0.08 2.14-0.68 3.19-0.89q0.54 3.88 1.09 7.76c-0.43 0.95-3.63 0.8-4.77 0.5-3.44-0.91-6.3-4.14-7.96-6.87-7.72-12.68 1.04-29.93 9.75-35.22 1.5-0.92 3.33-1.4 5.37-1.79l2.98-0.3c6.06-0.07 11.63 4.08 10.45 9.95-0.56 0.18-4.45-1.84-5.87-2.19-6.53-1.62-14.48 0.96-16.32 5.37q-0.15 0.15-0.3 0.3 0.1 0.1 0.2 0.2zm0.5-24.98q0.25 4.98 0.5 9.95-1.49 1.15-2.99 2.29-2.28 2.39-4.57 4.78-1.89 3.08-3.78 6.17h-1.8q-1.94 0.55-3.88 1.09c-1.77-1.59-3.77-2.8-5.07-4.87-1.53-2.44-3.13-7.99-1.19-11.15 2.56-4.2 12.94-8.89 18.01-11.04q2.09-0.75 4.17-1.49c0.88 0.62 0.52 2.88 0.6 4.27zm-16.32 29.06c0.88-1.09 2.15-1.41 3.49-2.09h0.49q0.1 0.15 0.2 0.3c-1.87 5.33-2.09 14.38 0 19.7q1.1 2.19 2.19 4.38 0.95 1.24 1.89 2.49v0.1c-3.62 2.1-6.72-2.76-7.86-4.98-2.72-5.32-4.6-14.69-0.4-19.9zm125.48 22.29q1.09-2.19 2.19-4.38c2.07-5.31 1.89-14.37 0-19.7q0.1-0.15 0.2-0.3c11.55 0.81 5.87 29.77-4.08 27.16q-0.1-0.1-0.2-0.19c0.32-1.08 1.3-1.75 1.89-2.59z"/>
		<path id="Path 3431" fill-rule="evenodd" class="s2" d="m2867.38 3005.57c-1.6 2.5-8.5 5.56-11.24 7.56-5.7 4.17-11.35 10.05-15.12 16.12-1.83 2.94-4.58 10.49-2.89 15.43 0.97 2.83 2.7 4.95 4.18 7.26 4.12 6.44 9.25 12.61 15.12 17.31 3.2 2.56 5.76 5.56 10.05 7.07q0.05-0.1 0.1-0.2c-0.73-4.2-2.73-9.69-1.49-14.73 0.6-2.42 2.36-3.95 2.99-5.97-1.81-1.22-3.76-2.47-5.08-4.18-2.43-3.16-4.98-10.49-2.19-15.22 2.68-4.54 8.68-7.47 13.53-9.85 2.35-1.15 10.67-6.03 14.04-4.38 2.9 1.43 1.83 11.56 2.18 15.82h0.4c7.7-3.04 15.26-0.32 18.91 4.38 1.34 1.73 3.49 4.77 2.09 7.96-0.4 0.89-1.23 1.38-1.79 2.09q0.84 1.04 1.69 2.09c1.37 2.05 2.55 5.94 1.29 9.15-0.67 1.71-3.74 4.17-3.88 4.88 1.85 4.71-0.8 10.72-6.37 9.75-1.73-0.3-6.66-2.12-7.56-1.79-0.08 4.81 1.14 9.08 1.89 13.13 1.44 7.82 2.15 15.29 3.88 22.59q12.04 0.45 24.08 0.9c2.74 0 7.32 0.67 9.45-0.3v-18.11c0-2.28-0.29-5.53 1.3-6.27 2.81-0.85 2.59 3.07 2.59 5.67v13.34c-0.01 1.59-0.41 4.37 0.19 5.57 8.36 0.19 16.24-0.5 24.28-0.5 1.68 0 8.67-0.01 9.06-0.5 1.07-2.14 0.91-5.14 1.49-7.66q1.69-9.65 3.38-19.3c0.28-1.3 1.33-7.99 0.6-8.76-4.83 1.99-12.28 3.47-14.03-2.39-0.6-2.02 0.23-4.03 0.4-5.77q-1.15-0.89-2.29-1.79c-1.64-2.11-2.89-6.28-1.49-9.65 0.67-1.62 2.45-2.81 2.88-4.38-3.64-2.57-2.04-7.14 0.2-9.85 2.75-3.31 7.03-6.65 13.73-5.57q2.84 0.54 5.67 1.09c0.28-3.83-0.5-13.92 1.7-15.52 1.22-0.89 3.67-0.59 5.17-0.1 3.74 1.22 7.39 3.1 10.65 4.88 6.36 3.46 15.9 7.43 12.93 18.5q-0.84 2.04-1.69 4.08c-0.88 1.49-2.14 3.04-3.48 4.08q-1.39 1-2.79 1.99c0.88 1.94 2.39 3.44 2.99 5.87 1.27 5.18-0.95 10.47-1.49 14.83q0.04 0.05 0.09 0.1h0.1c8.94-4.7 15.93-11.85 21.7-19.7 2.67-3.64 5.98-7.31 7.56-11.94 1.86-5.46-1.4-13.07-3.38-16.22-3.43-5.45-9.49-11.56-14.63-15.33-2.7-1.97-9.69-5.09-11.25-7.56-3.51-0.02-6.05 1.85-8.35 3.19-4.19 2.42-8.69 4.42-13.64 5.97-7.92 2.47-20.84 3.76-29.65 1.09-4.45-1.35-11.4-4.56-14.92-7.06q-1.75-1.55-3.49-3.09h-0.39c-1.72 2.23-4.16 3.31-6.67 4.78-3.48 2.04-7.54 4.1-11.64 5.37-9.94 3.06-25.73 0.87-33.73-2.39q-4.78-2.34-9.56-4.67c-2.3-1.35-4.84-3.19-8.36-3.19z"/>
		<path id="Path 3432" fill-rule="evenodd" class="s1" d="m2887.38 3024.88q-2.09 0.74-4.17 1.49c-5.07 2.15-15.45 6.84-18.01 11.04-1.94 3.16-0.35 8.71 1.19 11.15 1.3 2.07 3.3 3.28 5.07 4.87q1.94-0.54 3.88-1.09h1.8q1.89-3.09 3.78-6.17 2.29-2.39 4.57-4.78 1.5-1.14 2.99-2.29-0.25-4.97-0.5-9.95c-0.08-1.39 0.28-3.65-0.6-4.27z"/>
		<path id="Path 3433" fill-rule="evenodd" class="s1" d="m2987.68 3024.88c-0.81 1.01-1.16 13.88-0.49 14.82 3.06 1.31 7.13 6.24 8.85 9.06q0.9 1.79 1.79 3.58 1.25 0.05 2.49 0.1 1.44 0.5 2.89 0.99 0.25-0.05 0.49-0.1c3.81-1.67 9.97-10.65 6.07-16.22-3.6-5.14-15.4-9.72-22.09-12.23z"/>
		<path id="Path 3434" fill-rule="evenodd" class="s1" d="m2838.23 3052.54c-4.39 4.07-9.93 7.2-13.14 12.44-5.16 8.44-7.14 19.86-12.73 27.76-4.93 6.96-12.34 10.72-20.7 14.33q0.1 0.29 0.2 0.59 3.09 1.84 6.17 3.68 3.48 1.05 6.97 2.09c6.63 1.5 15.54 0.8 20.69-1.29q4.13-2.14 8.26-4.28c4.89-2.14 8.91-3.51 15.13-4.58 5.23-0.89 10.13 0.82 13.63 1.9 3.97 1.22 7.82 2.19 11.64 3.38 2.59 0.81 6.13 2.32 9.85 1.69 4.14-0.7 7.29-1.68 10.65-2.99q1.44-0.39 2.88-0.79-1.54-9.11-3.08-18.21-0.1-0.05-0.2-0.1c-2.36 0.77-5.23 1.14-7.76 0.1-1.04-0.43-2.82-2.12-3.78-1.99l-3.39 1.29c-4.65 0.83-7.75-2.84-9.35-5.27q-0.7-1.14-1.39-2.29c-1.69-1.11-4.12-1.19-5.77-2.19-4.46-2.7-8.93-5.87-12.44-9.55-3.09-3.24-6.14-6.65-8.76-10.35-0.9-1.27-2.43-4.6-3.58-5.37z"/>
		<path id="Path 3435" fill-rule="evenodd" class="s1" d="m3036.84 3052.54q-2.64 3.93-5.27 7.86c-3.58 4.79-8.2 9.51-12.94 13.13q-4.03 2.54-8.06 5.08-2.09 0.69-4.18 1.39-1.14 1.79-2.29 3.58c-2.29 3.01-7.64 5.55-11.84 2.59q-1.44 0.85-2.88 1.69c-3.18 1.52-5.49 1.02-8.76 0.3q-0.05 0.15-0.1 0.3-1.19 6.62-2.39 13.23c-0.28 1.36-0.97 3.88-0.5 4.98 1.59 0.07 2.79 0.72 3.99 1.19 3.61 1.41 8.6 3.22 13.73 2.19 5.96-1.2 11.3-3.11 17.11-4.87 3.91-1.19 9.62-2.82 15.32-1.8 5.57 1 11.37 3.08 15.63 5.58 2.75 1.61 5.71 3.28 9.15 4.18 9.52 2.49 21.1 0.14 27.36-3.59 1.21-0.71 2.71-1.15 3.59-2.19q-0.05-0.19-0.1-0.39-2.44-1.05-4.88-2.09c-10.12-4.37-16.69-11.84-21.09-21.89-2.7-6.15-4.09-12.66-7.37-18.01-2.39-3.92-6.17-6.69-9.75-9.46q-1.74-1.49-3.48-2.98z"/>
		<path id="Path 3436" fill-rule="evenodd" class="s3" d="m2899.33 3040.5q-1.5 0.15-2.99 0.3c-2.04 0.39-3.87 0.87-5.37 1.79-8.71 5.29-17.47 22.54-9.75 35.22 1.66 2.73 4.52 5.96 7.96 6.87 1.14 0.3 4.34 0.45 4.77-0.5q-0.55-3.88-1.09-7.76c-1.05 0.21-1.81 0.81-3.19 0.89v-0.19c-0.58-1.92 2.06-3.02 3.59-3.39 3.95-0.96 12.9 2.75 14.03-1.19 1.62-5.7-7.39-10.11-12.94-9.36-2.07 0.29-3.92 0.9-5.67 1.4v-0.1q0.05-0.15 0.1-0.3c1.58-1.23 2.65-2.58 4.67-3.48 0.96-0.43 2.21-0.4 3.59-0.4 5.62 0 7.62 2.45 11.04 4.38 5.66-2.95 2.19-9.1-1.39-11.45-6.01-3.94-13.83-1.57-19.21 0.9q-0.1-0.1-0.19-0.2 0.14-0.15 0.29-0.3c1.84-4.41 9.79-6.99 16.32-5.37 1.42 0.35 5.31 2.37 5.87 2.19 1.18-5.87-4.39-10.02-10.44-9.95z"/>
		<path id="Path 3437" fill-rule="evenodd" class="s3" d="m2974.35 3040.5q-1.14 0.2-2.29 0.4c-2.59 0.97-4.76 2.87-6.17 5.07-0.71 1.1-1.45 3.51-0.2 4.68 5.41-2.93 12.8-4.1 18.51-0.4 0.89 0.57 4.02 2.84 3.48 3.88-5.24-2.34-12.81-4.84-18.9-1.09-3.68 2.26-7.52 8.59-1.69 11.64 1.71-0.95 3.08-2.47 4.97-3.29 5.31-2.29 12.15-0.88 14.43 3.09v0.1h-0.1c-6.03-2.51-14.14-1.07-17.31 3.28-0.73 1-1.75 2.76-1.2 4.68 1.4 4.87 13.52-2 16.92 2.78 0.43 0.62 0.82 1.04 0.69 1.99h-0.49c-0.94-0.28-1.86-0.71-2.69-0.89-0.28 1.74-1.56 6.72-0.8 8.06 10.66 2.21 17.15-11.71 14.83-22.89-2.32-11.2-8.39-21.14-21.99-21.09z"/>
		<path id="Path 3438" fill-rule="evenodd" class="s3" d="m2875.15 3056.12c-1.34 0.68-2.61 1-3.49 2.09-4.2 5.21-2.32 14.58 0.4 19.9 1.14 2.22 4.24 7.08 7.86 4.98v-0.1q-0.94-1.25-1.89-2.49-1.09-2.19-2.19-4.38c-2.09-5.32-1.87-14.37 0-19.7q-0.1-0.15-0.2-0.3z"/>
		<path id="Path 3439" fill-rule="evenodd" class="s3" d="m2999.53 3056.12q-0.1 0.15-0.2 0.3c1.89 5.33 2.07 14.39 0 19.7q-1.1 2.19-2.19 4.38c-0.59 0.84-1.57 1.51-1.89 2.59q0.1 0.1 0.2 0.19c9.95 2.61 15.63-26.35 4.08-27.16z"/>
		<path id="Path 3440" fill-rule="evenodd" class="s4" d="m2935.74 3126.17v-3.38q-8.8 0.1-17.61 0.2c-3.25-0.49-6.63 0.39-9.95-0.1h-4.38v0.1q0.2 1.19 0.4 2.38 0.15 0.05 0.3 0.1 5.17 0.05 10.35 0.1c7.19 0 14.17 0.53 20.89 0.6z"/>
		<path id="Path 3441" fill-rule="evenodd" class="s4" d="m2939.42 3126.17q3.39-0.25 6.77-0.5h4.18q2.04-0.1 4.08-0.2h16.42q0.25-1.29 0.5-2.58-0.05-0.05-0.1-0.1-10.6 0.1-21.2 0.2-5.32-0.1-10.65-0.2z"/>
		<path id="Path 3442" fill-rule="evenodd" class="s4" d="m2906.29 3136.72q-0.1 0.05-0.2 0.1c0.11 2.26 0.93 10.48 1.79 11.94 3.09 0.95 8.51 4.46 9.95 6.96q-0.1 0.25-0.2 0.5h-0.1q-3.88-1.94-7.76-3.88c-8.9-3.68-24.43-5.58-30.25 2.39-1.26 1.73-2.35 4.39-1.69 7.46 0.48 2.22 1.64 3.83 2.39 5.67q27.86 0.5 55.72 1-0.1-16.02-0.2-32.04-10.3 0.15-20.59 0.3-4.43-0.2-8.86-0.4z"/>
		<path id="Path 3443" fill-rule="evenodd" class="s4" d="m2966.59 3136.72c-1.57 0.62-4.08 0.23-6.07 0.3h-14.13c-1.9-0.29-5.24-0.56-7.06-0.1q-0.05 15.97-0.1 31.94 27.86-0.5 55.72-1c0.74-1.84 1.91-3.45 2.39-5.67 0.66-3.07-0.43-5.73-1.7-7.46-5.83-7.98-21.32-6.05-30.24-2.39-2.06 0.84-6.06 3.69-7.87 3.88q-0.09-0.15-0.19-0.3 0.05-0.15 0.1-0.3c1.52-3.1 6.99-5.24 10.05-7.06 0.75-2.6 0.7-6.29 1.29-8.96 0.16-0.72 0.42-2.38 0.1-2.78q-1.15-0.05-2.29-0.1z"/>
		<path id="Path 3444" fill-rule="evenodd" class="s3" d="m2901.12 3115.03q-1 0.44-1.99 0.89-0.05 0.1-0.1 0.2c0.11 4.48 4.81 2.34 8.45 2.89q6.67 0.2 13.34 0.39 2.14-0.05 4.28-0.09 5.32 0.09 10.64 0.19c0.03-1.14 0.18-2.87-0.2-3.68h-16.41q-9.01-0.4-18.01-0.79z"/>
		<path id="Path 3445" fill-rule="evenodd" class="s3" d="m2971.37 3115.03c-2.17 0.82-5.58 0.01-8.16 0.39-4.95 0.74-10.22 0.4-15.33 0.4-2.12 0-6.89-0.5-8.46 0.2q0.05 1.79 0.1 3.58 14.08-0.3 28.16-0.59c3.24-0.49 6.61 1.2 8.06-1.4 0.23-0.41 0.53-0.87 0.3-1.49-0.63-1.14-2.84-1.14-4.67-1.09z"/>
		<path id="Path 3446" fill-rule="evenodd" class="s3" d="m2903.31 3128.66c-1.48 0.54-1.88 0.42-2.79 1.39 0.13 2.91 3.45 3.6 6.86 3.09q3.29 0.15 6.57 0.29h14.33c2.37-0.01 5.64 0.59 7.56-0.09 0.03-1.27 0.23-3.27-0.2-4.18-10.81 0.19-21.48-0.46-32.33-0.5z"/>
		<path id="Path 3447" fill-rule="evenodd" class="s3" d="m2970.37 3128.66c-1.73 0.7-4.49-0.11-6.57 0.2q-8.45 0.15-16.91 0.3c-2.42 0.36-5.76-0.6-7.56 0.2q0.05 2.03 0.09 4.07h21.8q3.28-0.14 6.56-0.29c2.81 0.41 7.74-0.3 6.77-3.09-0.59-1.31-2.24-1.45-4.18-1.39z"/>
		<path id="Path 3448" fill-rule="evenodd" class="s3" d="m2877.63 3170.45c-0.31 1.61-0.53 5.69 0.1 7.07q20.4-0.15 40.8-0.3h12.94c1.39 0 3.54 0.26 4.57-0.2q-0.05-2.64-0.1-5.28-29.15-0.64-58.31-1.29z"/>
		<path id="Path 3449" fill-rule="evenodd" class="s3" d="m2996.34 3170.45q-21.39 0.5-42.78 1-5.23 0.04-10.45 0.09c-1.08 0-3.38-0.23-3.88 0.4-0.42 1-0.3 4.43 0.1 5.28q20.74 0.1 41.49 0.2 6.32 0.05 12.64 0.1c1.29 0 3.23 0.22 4.17-0.2q-0.05-3.44-0.09-6.87z"/>
		<path id="Path 3450" fill-rule="evenodd" class="s0" d="m2883.55 2996.77c-1.26 0.74-2.15 1.6-1.47 2.41 0.7 0.85 4.07 1.79 5.16 2.11 2.37 0.69 5.29 1.43 7.75 1.65 2.42 0.21 4.76-0.39 7.1-0.53 1.65-0.1 10.08-1.77 9.67 1.65-0.14 1.15-2.03 2.26-2.85 2.82 2.46 0.35 15.89-6.04 13.9 1.84-0.49 1.95-2.34 3.35-3.97 4.35-0.88 0.53-4.64 2.77-5.64 2.43 4.17 1.42 10.54 0.37 14.69-0.79 2.93-0.81 5.57-2.25 8.13-3.88 2.18-1.38 3.93-3.29 6.28-4.39 2.84-1.35 5.86-1.94 8.95-1.84 2.66 0.09 5.6 0.08 8.03-1.13 2.74-1.37 5.62-2.89 8.69-3.36 1.38-0.21 4.36-0.4 5.3 0.95 0.91 1.31-0.61 2.73-1.45 3.61 2.85-0.91 5.91-0.77 8.78-1.77 4.14-1.45 8.12-3.42 12.44-4.3 0.97-0.2 1.65-0.31 2.5-0.76 0.81-0.44 1.62-0.7 2.53-0.85 1.82-0.29 3.68-0.09 5.5-0.34 1.27-0.18 3.08-0.24 3.41-1.68-1.24-1.23-4.16-0.28-5.69-0.21-3.71 0.19-7.36-0.11-11.07-0.2-1.9-0.05-3.74 0.48-5.61 0.73-1.68 0.23-2.97-0.14-4.61-0.28-3.66-0.33-7.39-0.31-11.03 0.21-11.32 1.62-22.57 7.86-34.14 6.3-6.3-0.84-12.8-2.19-18.79-4.19-6.07-2.03-10.25-2.47-16.78-2.14-4.18 0.2-7.51-1.64-11.6-0.18-0.52 0.19-2.59 0.88-4.11 1.76z"/>
		<path id="Path 3451" fill-rule="evenodd" class="s0" d="m2862.12 3042.34c0.14 0.99 0.42 1.95 0.81 2.8 3.62-3.15 7.66-5.76 11.8-8.16 4.14-2.39 8.64-3.88 13.01-5.86 1.06-0.48 1.73-0.48 2.01-1.56 0.16-0.64-0.22-1.65-0.29-2.27-0.18-1.58-0.05-3.51-1.83-4.11-1.42-0.47-3.8 0.51-5.1 1.03-2.41 0.96-4.86 1.91-7.09 3.26-0.97 0.58-1.83 1.43-2.82 1.95-1.15 0.6-2.39 0.82-3.48 1.59-2.11 1.48-4.3 3.1-5.81 5.21-1.21 1.7-1.52 3.98-1.21 6.12z"/>
		<path id="Path 3452" fill-rule="evenodd" class="s0" d="m2839.9 3051.43c-0.41 3.56 1.68 7.53 3.16 10.67 1.77 3.76 4.36 7.76 7.35 10.67 2.07 2.02 4.21 4.11 6.59 5.75 2.3 1.58 4.61 3.1 7.04 4.46 1.16 0.65 2.5 1.24 3.56 2.03 2.76 2.06 2.56 6.76 4.09 9.66 2.55 4.83 8.23 6.25 13.2 7.01 4.36 0.67 9.4 0.86 13.66-0.13 0.34-3.94-0.63-8.01-1.95-11.63-0.47-1.29-0.3-3.11-1.85-3.46-1.66-0.38-3.48 0.56-5.17 0.48-2.26-0.1-3.71-0.76-5.59-1.65-1.17-0.57-2.33-0.15-3.57 0.19-0.73 0.2-1.73 0.71-2.52 0.54-0.45-0.09-0.36-0.39-0.66-0.51-0.94-0.37-2.07-0.65-2.89-1.27-1.44-1.08-2.34-2.87-3.41-4.3-1.23-1.64-2.43-2.39-4.31-3.23-2.11-0.94-4.26-1.29-6.19-2.72-3.43-2.53-6.2-5.98-9.15-9.04-3.12-3.24-5.98-6.84-8.71-10.42-0.85-1.11-1.54-2.27-2.68-3.1z"/>
		<path id="Path 3453" fill-rule="evenodd" class="s0" d="m3014.1 3042.34c-0.15 0.99-0.43 1.95-0.81 2.8 0.63-1.38-7.71-5.38-8.72-5.58-1.59 3.27-1.83 6.78-2.6 10.37-0.49 2.28-1.4 3.76-3.87 3.72-1.65-0.02-1.02 0.09-2.34-1.02-0.99-0.83-2.15-1.78-2.91-2.83-1.09-1.51-2.1-3.06-3.07-4.61-1.65-2.65-3.29-4.13-3.29-7.43 0-1.41-0.03-2.76-0.17-4.11-0.23-2.34 0.6-4.7 0.72-7.03 0.07-1.38-0.14-2.87 1.55-3.44 1.41-0.47 3.8 0.51 5.1 1.03 2.41 0.96 4.85 1.91 7.08 3.26 0.98 0.58 1.83 1.43 2.83 1.95 1.15 0.6 2.39 0.82 3.48 1.59 2.1 1.48 4.29 3.1 5.8 5.21 1.22 1.7 1.53 3.98 1.22 6.12z"/>
		<path id="Path 3454" fill-rule="evenodd" class="s0" d="m3016.6 3101.5c0.1 1.05 0.83 3.02 0.16 3.91-0.67 0.9-4.23 1.16-5.29 1.52-2.49 0.86-4.81 1.65-7.37 2.28-2.59 0.64-5.09 1.62-7.69 2.19-7.36 1.62-12.74-2.84-19.67-3.58-0.16-3.25 0.86-6.38 1.56-9.5 0.63-2.79 0.34-5.74 1.31-8.4 0.48-1.29 0.3-3.11 1.85-3.46 1.67-0.38 3.49 0.56 5.18 0.48 2.26-0.1 3.71-0.76 5.58-1.65 1.18-0.57 2.34-0.15 3.58 0.19 0.73 0.2 1.73 0.71 2.52 0.54 0.44-0.09 0.36-0.39 0.65-0.51 0.94-0.37 2.08-0.65 2.89-1.27 1.45-1.08 2.34-2.87 3.42-4.3 1.23-1.64 2.42-2.39 4.3-3.23 2.11-0.94 4.27-1.29 6.2-2.72 3.43-2.53 6.2-5.98 9.15-9.04 3.11-3.24 5.98-6.84 8.71-10.42 0.77-1.01 2.17-1.85 2.83-3.01 0.16-0.28 0.23-0.58 0.39-0.86 2.28 1.05 3.99 3.5 5.78 5.22 0.46 0.44 2.1 1.25 2.29 1.86 0.49 1.67-4.47 6.07-5.23 7.23-2.01 3.05-3.54 5.6-6.47 7.87-3.44 2.67-6.87 5.3-10.09 8.22-5.22 4.72-7.19 13.65-6.54 20.44z"/>
		<path id="Path 3455" fill-rule="evenodd" class="s5" d="m2954.28 3055.31l-1.86-2.08-1.47-1.65h-0.01l-0.01-0.01-0.01-0.01-3.52-3.94v-0.01l-1.48-1.64-1.15-1.3q-0.14-0.15-0.34-0.19-0.26-0.05-0.48 0.11c-1.43 1.07-3.29 1.56-5.19 1.17-1.38-0.28-2.76-1.01-4.04-2.29q-0.07-0.07-0.11-0.16c-3.14-5.86 1.4-11.06 6.41-10.3q0.17 0.02 0.33 0.05 0.91 0.19 1.71 0.61 0.08 0.05 0.16 0.06c0.25 0.05 0.5-0.05 0.64-0.27l7.68-12.02c0.19-0.29 0.1-0.68-0.19-0.86-2.14-1.28-4.48-2.19-6.91-2.68q-0.55-0.11-1.1-0.2c-11.91-1.8-23.19 6.52-24.99 18.43-1.75 11.54 6.01 22.49 17.33 24.8q0.54 0.11 1.09 0.19c6.27 0.95 12.63-0.86 17.46-4.94 0.26-0.22 0.28-0.62 0.05-0.87z"/>
		<path id="Path 3456" fill-rule="evenodd" class="s4" d="m2949.44 2745.04q-1.54 0.4-3.09 0.79c-3.55 1.73-6.86 4.26-10.45 6.07-3.4 1.73-9.11 1.45-13.43 2.19-2.84 0.5-6.81 0.11-9.25-0.3q-4.43-0.24-8.86-0.49c-7.38-1.2-18.33-2.09-25.67-0.2-5.02 1.29-9.86 6.05-12.74 9.65q-1.34 1.64-2.68 3.28c-5.73 4.9-11.55 9.08-18.31 13.04q-5.62 2.34-11.25 4.68-2.09 0.44-4.17 0.89-2.24 0.85-4.48 1.69c-3.86 0.99-9.34 0.91-12.14 3.09-2.9 2.25-4.33 6.84-6.37 9.95-2.03 3.09-4.23 6.06-6.47 8.95-2.73 3.53-6.03 5.99-7.56 10.85-2.16 6.88-1.26 16.3-3.58 22.88-3.15 8.93-9.56 14.6-13.04 23.19-2.7 6.67-0.79 18.35 0.4 25.47q0.35 5.03 0.7 10.05c0.89 2.99 3.64 5.32 5.67 7.27q6.67 6.56 13.33 13.13 3.53 4.08 7.07 8.16c3.32 4.33 6.31 9.2 9.15 13.93 5.48 9.14 9.28 19.74 18.21 25.37 6.26 3.95 13.64 6.78 21.89 8.66q5.32 0.4 10.65 0.8c3.25 0.57 6.5 1.26 9.45 2.19 5.13 1.61 9.83 4.73 13.83 7.66 2.68 1.96 4.74 4.44 8.46 5.37 4.74 1.18 10.95-0.3 16.42 0.7 8.39 1.53 14.67 4.45 23.28 5.87 2.48 0.41 5.34 0.07 7.47-0.3q3.98-0.55 7.96-1.1c3.63-0.99 7.16-2.32 10.54-3.28 2.78-0.79 5.81-1.17 8.76-1.79 7.57-1.58 15.72 1.84 22.89-0.1 4.08-1.11 8.68-6.94 12.43-9.25 2.65-1.64 5.66-3.2 8.96-4.08 2.53-0.68 5.41-0.48 7.66-1.4 1.63-0.65 2.69-2.16 3.88-3.28q2.79-1.94 5.57-3.88c3.2-1.88 9.22-0.69 13.04-1.99 5.4-1.84 10.33-6.46 13.73-10.45 1.69-1.98 3.81-7.13 4.38-10.05q-0.2-5.37-0.4-10.74c0.58-3.48 1.45-6.54 2.69-9.36 1.87-4.28 5.36-8.49 8.75-11.34 2.67-2.24 5.71-4.23 7.96-6.87 2.29-2.67 4.33-6.59 5.68-10.05 1.61-4.15 1.21-9.46 2.08-14.33 0.8-4.42 1.16-8.65 1.99-13.43 0.26-1.45 0.54-3.66 0.2-5.37-0.88-4.51-3.05-7.92-4.57-11.64q-0.6-3.29-1.2-6.57-0.35-4.13-0.69-8.26c-1.45-8.48-2.12-17.13-6.17-22.89-1.55-2.19-4.45-2.53-6.97-3.78-3.49-1.73-7.1-4-10.05-6.37-4.02-3.22-5.74-9.98-9.85-12.33h-0.1q0.65 8.11 1.29 16.22c0.22 1.44-0.37 4.66 0.6 5.37q1.94 0.35 3.88 0.7c3.75 0.92 7.48 2.15 9.55 4.77 2.12 2.68 4.1 5.92 5.18 9.55 1.45 4.87 0.76 10.49 1.59 16.02 1.18 7.86 1.38 15.78 1.39 24.48 0.01 6.13 0.85 16.5-1.29 20.7-1.87 3.68-5.8 4.61-10.35 5.67-7.94 1.86-16.45 2.43-25.27 3.88-4.25 0.7-10.54 1.22-14.73 0-6.98-2.04-8.52-8-9.75-15.82q-0.25-4.73-0.5-9.45c-0.87-5.68-0.89-11.96-0.89-18.01v-15.82-7.27c0.96-6.24 1.19-12.9 4.28-17.01 4.14-5.53 13.79-3.82 22.78-3.78q2.44 0.1 4.88 0.19-1.69-15.57-3.39-31.14c-2.08-0.64-3.35-2.29-4.87-3.48q-2.64-1.74-5.27-3.49-7.17-3.68-14.33-7.36-4.88-3.63-9.75-7.26c-1.83-1.12-3.85-1.74-5.48-2.99-3.18-2.44-4.98-7.19-8.55-9.05-0.87-0.45-2.05-0.29-3.19-0.5-4.21-0.79-8.99-0.32-13.53-1.09q-8.16-1.4-16.32-2.79c-3.19-0.69-5.66-1.79-9.55-1.79z"/>
		<path id="Path 3457" fill-rule="evenodd" class="s4" d="m3017.5 2761.06q-2.84 0.45-5.67 0.89c0.89 1.12 2.4 1.75 3.58 2.59 4.07 2.91 8.89 5.78 13.73 7.86v-0.3q-0.6-1.29-1.19-2.58-0.5-2.09-1-4.18c-0.31-0.48-8.38-4.28-9.45-4.28z"/>
		<path id="Path 3458" fill-rule="evenodd" class="s4" d="m2860.98 2761.85q-4.08 0.6-8.16 1.2c-2.6 0.81-4.52 3.25-6.77 4.58q-2.29 1.24-4.57 2.48-0.4 1.45-0.8 2.89-0.8 1.64-1.59 3.28 0.1 0.05 0.2 0.1c7.15-2.68 12.64-7.13 18.21-11.34 1.26-0.96 2.93-1.72 3.88-2.99z"/>
		<path id="Path 3459" fill-rule="evenodd" class="s4" d="m3055.31 2788.52q-2.44 0.25-4.88 0.5c0.28 3.1 3.66 4.51 5.48 6.17 1.69 1.54 2.41 4.09 3.68 6.07 1.13 1.76 3.05 3.39 4.77 4.58h0.3v-0.1c-0.5-1.28-1.08-2.48-1.39-3.98q-0.05-1.45-0.1-2.89-2.29-3.03-4.58-6.07c-0.72-1.14-1.67-4.14-3.28-4.28z"/>
		<path id="Path 3460" fill-rule="evenodd" class="s4" d="m3095.41 2867.43c0.04 5.4-0.41 10.1-1.39 14.82-0.36 1.74-1.39 4.53-0.9 6.47q0.25-0.2 0.5-0.4 2.19-2.68 4.38-5.37-0.1-2.34-0.2-4.68c-0.22-4 1.48-9.97-2.39-10.84z"/>
		<path id="Path 3461" fill-rule="evenodd" class="s4" d="m2790.23 2922.35c0.09 0.78 1.36 6.68 1.69 7.17q2.59 2.93 5.18 5.87c1.02 1.37 1.87 3.54 3.28 4.48q2.29 0.64 4.58 1.29 0.05-0.1 0.1-0.2-1.2-1.89-2.39-3.78c-2.69-4.03-5.72-7.3-8.66-10.94-0.93-1.16-2.25-3.43-3.78-3.89z"/>
		<path id="Path 3462" fill-rule="evenodd" class="s4" d="m2826.45 2971.61q0.35 2.59 0.7 5.17c1.11 1.49 7.99 5 10.15 5.38q1.34-0.35 2.68-0.7c1.2-0.37 3.65-0.59 4.08-1.69-2.22-0.37-3.96-1.51-5.77-2.29-2.66-1.15-4.99-2.02-7.46-3.28q-2.19-1.3-4.38-2.59z"/>
		<path id="Path 3463" fill-rule="evenodd" class="s4" d="m2949.44 2745.04q-1.54 0.4-3.09 0.79c-3.55 1.73-6.86 4.26-10.45 6.07-3.4 1.73-9.11 1.45-13.43 2.19-2.84 0.5-6.81 0.11-9.25-0.3q-4.43-0.24-8.86-0.49c-7.38-1.2-18.33-2.09-25.67-0.2-5.02 1.29-9.86 6.05-12.74 9.65q-1.34 1.64-2.68 3.28c-5.73 4.9-11.55 9.08-18.31 13.04q-5.62 2.34-11.25 4.68-2.09 0.44-4.17 0.89-2.24 0.85-4.48 1.69c-3.86 0.99-9.34 0.91-12.14 3.09-2.9 2.25-4.33 6.84-6.37 9.95-2.03 3.09-4.23 6.06-6.47 8.95-2.73 3.53-6.03 5.99-7.56 10.85-2.16 6.88-1.26 16.3-3.58 22.88-3.15 8.93-9.56 14.6-13.04 23.19-2.7 6.67-0.79 18.35 0.4 25.47q0.35 5.03 0.7 10.05c0.89 2.99 3.64 5.32 5.67 7.27q6.67 6.56 13.33 13.13 3.53 4.08 7.07 8.16c3.32 4.33 6.31 9.2 9.15 13.93 5.48 9.14 9.28 19.74 18.21 25.37 6.26 3.95 13.64 6.78 21.89 8.66q5.32 0.4 10.65 0.8c3.25 0.57 6.5 1.26 9.45 2.19 5.13 1.61 9.83 4.73 13.83 7.66 2.68 1.96 4.74 4.44 8.46 5.37 4.74 1.18 10.95-0.3 16.42 0.7 8.39 1.53 14.67 4.45 23.28 5.87 2.48 0.41 5.34 0.07 7.47-0.3q3.98-0.55 7.96-1.1c3.63-0.99 7.16-2.32 10.54-3.28 2.78-0.79 5.81-1.17 8.76-1.79 7.57-1.58 15.72 1.84 22.89-0.1 4.08-1.11 8.68-6.94 12.43-9.25 2.65-1.64 5.66-3.2 8.96-4.08 2.53-0.68 5.41-0.48 7.66-1.4 1.63-0.65 2.69-2.16 3.88-3.28q2.79-1.94 5.57-3.88c3.2-1.88 9.22-0.69 13.04-1.99 5.4-1.84 10.33-6.46 13.73-10.45 1.69-1.98 3.81-7.13 4.38-10.05q-0.2-5.37-0.4-10.74c0.58-3.48 1.45-6.54 2.69-9.36 1.87-4.28 5.36-8.49 8.75-11.34 2.67-2.24 5.71-4.23 7.96-6.87 2.29-2.67 4.33-6.59 5.68-10.05 1.61-4.15 1.21-9.46 2.08-14.33 0.8-4.42 1.16-8.65 1.99-13.43 0.26-1.45 0.54-3.66 0.2-5.37-0.88-4.51-3.05-7.92-4.57-11.64q-0.6-3.29-1.2-6.57-0.35-4.13-0.69-8.26c-1.45-8.48-2.12-17.13-6.17-22.89-1.55-2.19-4.45-2.53-6.97-3.78-3.49-1.73-7.1-4-10.05-6.37-4.02-3.22-5.74-9.98-9.85-12.33h-0.1q0.65 8.11 1.29 16.22c0.22 1.44-0.37 4.66 0.6 5.37q1.94 0.35 3.88 0.7c3.75 0.92 7.48 2.15 9.55 4.77 2.12 2.68 4.1 5.92 5.18 9.55 1.45 4.87 0.76 10.49 1.59 16.02 1.18 7.86 1.38 15.78 1.39 24.48 0.01 6.13 0.85 16.5-1.29 20.7-1.87 3.68-5.8 4.61-10.35 5.67-7.94 1.86-16.45 2.43-25.27 3.88-4.25 0.7-10.54 1.22-14.73 0-6.98-2.04-8.52-8-9.75-15.82q-0.25-4.73-0.5-9.45c-0.87-5.68-0.89-11.96-0.89-18.01v-15.82-7.27c0.96-6.24 1.19-12.9 4.28-17.01 4.14-5.53 13.79-3.82 22.78-3.78q2.44 0.1 4.88 0.19-1.69-15.57-3.39-31.14c-2.08-0.64-3.35-2.29-4.87-3.48q-2.64-1.74-5.27-3.49-7.17-3.68-14.33-7.36-4.88-3.63-9.75-7.26c-1.83-1.12-3.85-1.74-5.48-2.99-3.18-2.44-4.98-7.19-8.55-9.05-0.87-0.45-2.05-0.29-3.19-0.5-4.21-0.79-8.99-0.32-13.53-1.09q-8.16-1.4-16.32-2.79c-3.19-0.69-5.66-1.79-9.55-1.79z"/>
		<path id="Path 3464" fill-rule="evenodd" class="s4" d="m3017.5 2761.06q-2.84 0.45-5.67 0.89c0.89 1.12 2.4 1.75 3.58 2.59 4.07 2.91 8.89 5.78 13.73 7.86v-0.3q-0.6-1.29-1.19-2.58-0.5-2.09-1-4.18c-0.31-0.48-8.38-4.28-9.45-4.28z"/>
		<path id="Path 3465" fill-rule="evenodd" class="s4" d="m2860.98 2761.85q-4.08 0.6-8.16 1.2c-2.6 0.81-4.52 3.25-6.77 4.58q-2.29 1.24-4.57 2.48-0.4 1.45-0.8 2.89-0.8 1.64-1.59 3.28 0.1 0.05 0.2 0.1c7.15-2.68 12.64-7.13 18.21-11.34 1.26-0.96 2.93-1.72 3.88-2.99z"/>
		<path id="Path 3466" fill-rule="evenodd" class="s4" d="m3055.31 2788.52q-2.44 0.25-4.88 0.5c0.28 3.1 3.66 4.51 5.48 6.17 1.69 1.54 2.41 4.09 3.68 6.07 1.13 1.76 3.05 3.39 4.77 4.58h0.3v-0.1c-0.5-1.28-1.08-2.48-1.39-3.98q-0.05-1.45-0.1-2.89-2.29-3.03-4.58-6.07c-0.72-1.14-1.67-4.14-3.28-4.28z"/>
		<path id="Path 3467" fill-rule="evenodd" class="s4" d="m3095.41 2867.43c0.04 5.4-0.41 10.1-1.39 14.82-0.36 1.74-1.39 4.53-0.9 6.47q0.25-0.2 0.5-0.4 2.19-2.68 4.38-5.37-0.1-2.34-0.2-4.68c-0.22-4 1.48-9.97-2.39-10.84z"/>
		<path id="Path 3468" fill-rule="evenodd" class="s4" d="m2790.23 2922.35c0.09 0.78 1.36 6.68 1.69 7.17q2.59 2.93 5.18 5.87c1.02 1.37 1.87 3.54 3.28 4.48q2.29 0.64 4.58 1.29 0.05-0.1 0.1-0.2-1.2-1.89-2.39-3.78c-2.69-4.03-5.72-7.3-8.66-10.94-0.93-1.16-2.25-3.43-3.78-3.89z"/>
		<path id="Path 3469" fill-rule="evenodd" class="s4" d="m2826.45 2971.61q0.35 2.59 0.7 5.17c1.11 1.49 7.99 5 10.15 5.38q1.34-0.35 2.68-0.7c1.2-0.37 3.65-0.59 4.08-1.69-2.22-0.37-3.96-1.51-5.77-2.29-2.66-1.15-4.99-2.02-7.46-3.28q-2.19-1.3-4.38-2.59z"/>
		<path id="Path 3470" fill-rule="evenodd" class="s0" d="m3102.18 2877.88c0-3.27 0.6-7.51-0.5-10.05-0.97-2.26-3.32-3.38-5.08-4.88-2.73-2.34-5.3-5.92-6.76-9.45-1.28-3.08-0.74-7.37-1.4-11.05-1.37-7.67-1.54-16.15-4.37-22.29-1.18-2.54-3.15-5.53-5.48-6.96-4.94-3.03-7.25-1.61-10.15-7.36-0.74-1.48-1.19-3.27-1.19-5.38q0.05-1.49 0.1-2.98c-0.54-2.18-5.55-6.7-6.97-8.96-0.75-1.21-1.4-3.12-2.68-3.78-2.02-1.04-5.07 0.39-7.47 0.4q-2.78-27.86-5.57-55.72c4.23-1.53 7.5-5.32 4.28-10.55-2.5-4.06-7.63-7.38-14.23-7.26-3.15 1.2-4.61 1.15-6.27 3.88-2.61 4.31 2.58 10.6 5.87 11.74 1.37 2.02 1.05 10.3 1.6 13.53q1.99 19.3 3.98 38.61l-0.2 0.1c-2.7-3.11-5.5-5.99-7.47-9.85-0.96-1.91-0.77-5.98-2.38-7.27q-2.54-1.09-5.08-2.19c-1.97-1.09-3.43-2.92-5.97-3.38l-2.59 0.3c-3.42 0.57-9.75 1.16-12.63 0.3-3.31-1-5.75-7.65-9.65-9.46-4.55-2.09-11.13-0.87-16.92-1.99q-4.88-0.84-9.75-1.69-2.94-0.3-5.87-0.59c-3.6-0.95-7.3-3.57-12.44-2.59-5.62 1.07-8.48 4.19-13.03 6.07-4.05 1.67-8.97 1.68-13.84 2.49-3.11 0.51-7.28 0.13-10.05-0.3q-3.93-0.25-7.86-0.5c-7.83-1.35-19.29-1.93-26.56 0.3-5.2 1.59-8.46 5.47-13.04 7.46-2.52 1.09-5.55 1.39-8.66 1.99q-2.14 0.3-4.27 0.6-3.09 2.14-6.17 4.28-3.24 1.69-6.47 3.38c-1.52 1.12-1.61 3.49-2.39 5.37-1.02 2.48-2.95 5.84-5.17 7.17q-1.45 0.35-2.89 0.69-2.19 0.85-4.38 1.7c-4.6 1.3-10.69 1.16-13.93 3.88-4.21 3.52-6.98 10.89-10.25 15.52-3.97 5.64-9.42 9.47-11.74 16.81-2.21 6.99-1.22 16.85-3.88 23.39-3.4 8.38-9.43 13.98-12.74 22.49-2.88 7.42-1.12 18.72 0.2 26.56 0.55 3.25-0.12 7.11 0.6 10.45 1.31 6.04 6.71 8.8 9.55 13.34 2.09 3.32 3.49 7.31 4.78 11.44q0.5 2.29 0.99 4.58 5.03 6.51 10.05 13.03c1 0.74 2.53 0.81 3.78 1.29 3.07 1.2 7.08 3.13 8.96 5.58q1.79 3.38 3.58 6.76 2.14 3.14 4.28 6.27 1.29 3.09 2.59 6.17c1.09 2.77 1.42 8.32 3.08 10.45 1.35 1.72 10.87 7.2 14.23 6.57q6.37-2.14 12.74-4.28c2.36-0.49 5.45-0.04 7.46 0.3 5.45 0.91 9.9 0.98 14.23 2.78 4.14 1.72 8.12 4.49 11.54 7.07 2.06 1.54 4.12 4.16 6.77 4.97 2.5 0.77 7.59 1.83 10.84 1.29q4.18-0.04 8.36-0.09c7.54 1.3 13.33 3.87 20.5 5.57q3.33 0.3 6.67 0.59c2.95 0.47 7.58-0.78 10.05-1.29 8.55-1.76 14.73-4.27 23.48-5.87 5.38-0.98 10.99 0.31 16.12 0.3 1.67-0.01 3.36 0.09 4.68-0.3 6.86-2.06 10.23-7.35 15.92-10.45 2.05-1.11 4.38-2.17 6.86-2.78 2.97-0.74 6.11-0.61 8.66-1.69 3.67-1.57 5.95-5.32 9.35-7.37 2.44-1.47 8.59-0.85 11.65-1.69 4.7-1.3 8.34-4.28 11.74-6.97 4.27-3.38 8.93-10.55 10.25-16.81 0.75-3.59-0.96-7.38-0.3-11.15 0.52-3.03 1.38-5.76 2.48-8.25 3.33-7.51 10.94-10.54 15.63-16.42 2.26-2.84 4.32-6.4 5.97-9.75 1.45-2.96 1.89-6.41 3.58-8.96q2.49-3.08 4.97-6.17c1.19-1.47 2.94-2.69 3.69-4.58 0.67-1.71 0-4.38 0-6.46zm-11.75-5.08c-0.83 4.78-1.19 9.01-1.99 13.43-0.87 4.87-0.47 10.18-2.09 14.33-1.34 3.46-3.38 7.38-5.67 10.05-2.25 2.64-5.29 4.63-7.96 6.87-3.39 2.85-6.88 7.06-8.75 11.34-1.24 2.82-2.11 5.88-2.69 9.36q0.2 5.37 0.4 10.74c-0.57 2.92-2.69 8.07-4.38 10.05-3.4 3.99-8.33 8.61-13.73 10.45-3.82 1.3-9.84 0.11-13.04 1.99q-2.78 1.94-5.57 3.88c-1.19 1.12-2.25 2.63-3.88 3.28-2.25 0.92-5.13 0.72-7.66 1.4-3.3 0.88-6.31 2.44-8.96 4.08-3.75 2.31-8.35 8.14-12.43 9.25-7.17 1.94-15.32-1.48-22.89 0.1-2.95 0.62-5.98 1-8.76 1.79-3.38 0.96-6.91 2.29-10.54 3.28q-3.98 0.55-7.97 1.1c-2.12 0.37-4.98 0.71-7.46 0.3-8.61-1.42-14.89-4.34-23.28-5.87-5.47-1-11.68 0.48-16.42-0.7-3.72-0.93-5.78-3.41-8.46-5.37-4-2.93-8.71-6.05-13.83-7.66-2.95-0.93-6.2-1.62-9.45-2.19q-5.33-0.4-10.65-0.8c-8.25-1.88-15.63-4.71-21.89-8.66-8.93-5.63-12.73-16.23-18.21-25.37-2.84-4.73-5.83-9.6-9.15-13.93q-3.54-4.08-7.07-8.16-6.66-6.57-13.33-13.13c-2.03-1.95-4.78-4.28-5.67-7.27q-0.35-5.02-0.7-10.05c-1.19-7.12-3.1-18.8-0.4-25.47 3.48-8.59 9.89-14.26 13.04-23.19 2.32-6.58 1.42-16 3.58-22.88 1.53-4.86 4.83-7.32 7.56-10.85 2.24-2.89 4.44-5.86 6.47-8.95 2.04-3.11 3.47-7.7 6.37-9.95 2.8-2.18 8.28-2.1 12.14-3.09q2.24-0.84 4.48-1.69 2.08-0.45 4.17-0.89 5.63-2.34 11.25-4.68c6.76-3.96 12.58-8.14 18.31-13.04q1.34-1.64 2.68-3.28c2.88-3.6 7.72-8.36 12.74-9.65 7.34-1.89 18.29-1 25.67 0.2q4.43 0.25 8.86 0.49c2.44 0.41 6.41 0.8 9.25 0.3 4.32-0.74 10.03-0.46 13.44-2.19 3.58-1.81 6.89-4.34 10.44-6.07q1.54-0.39 3.09-0.79c3.89 0 6.36 1.1 9.55 1.79q8.16 1.39 16.32 2.79c4.54 0.77 9.32 0.3 13.53 1.09 1.14 0.21 2.32 0.05 3.19 0.5 3.57 1.86 5.37 6.61 8.55 9.05 1.63 1.25 3.65 1.87 5.48 2.99q4.87 3.63 9.75 7.26 7.16 3.68 14.32 7.36 2.64 1.75 5.28 3.49c1.52 1.19 2.79 2.84 4.87 3.48q1.7 15.57 3.39 31.14-2.44-0.09-4.88-0.19c-8.99-0.04-18.64-1.75-22.78 3.78-3.09 4.11-3.32 10.77-4.28 17.01v23.09c0 6.05 0.02 12.33 0.89 18.01q0.25 4.72 0.5 9.45c1.23 7.82 2.77 13.78 9.75 15.82 4.19 1.22 10.47 0.7 14.73 0 8.82-1.45 17.33-2.02 25.27-3.88 4.55-1.06 8.47-1.99 10.35-5.67 2.14-4.2 1.3-14.57 1.29-20.7-0.01-8.7-0.21-16.62-1.39-24.48-0.83-5.53-0.14-11.15-1.59-16.02-1.08-3.63-3.06-6.87-5.18-9.55-2.07-2.62-5.8-3.85-9.55-4.77q-1.94-0.35-3.88-0.7c-0.97-0.71-0.38-3.93-0.6-5.37q-0.64-8.11-1.29-16.22h0.1c4.11 2.35 5.83 9.11 9.85 12.33 2.95 2.37 6.56 4.64 10.05 6.37 2.52 1.25 5.42 1.59 6.97 3.78 4.05 5.76 4.72 14.41 6.17 22.89q0.34 4.13 0.69 8.26 0.6 3.28 1.2 6.57c1.52 3.72 3.69 7.13 4.57 11.64 0.34 1.71 0.06 3.91-0.2 5.37zm-176.71 89.06c-1.38 0.53-1.8 0.1-2.89 0.89q-0.1 0.3-0.2 0.6c0.23 3.03 7.85 3.24 8.86 0.7-0.13-2.37-3.61-1.89-5.77-2.19zm-23.49 5.17c-2.72-0.57-5.92-0.72-8.85-0.1-0.98 0.21-2.15 0.85-3.49 0.6-2.66-0.49-5.77-1.92-7.66-3.38q-1.19-1.6-2.39-3.19c-1.86-2.38-5.27-5.33-9.05-5.67 0.87 1.82 3.65 2.76 4.87 4.38q2 2.93 3.98 5.87c1.44 1.82 6.99 4.26 9.76 4.78 3.19 0.58 6.03-1.25 8.26-1.99 2.17-0.73 4.91-0.16 7.16-0.1q0.05-0.1 0.1-0.2c-0.55-0.81-1.56-0.76-2.69-1zm-19.2-5.87c0.04 2.15 5.44 4.13 7.46 3.58q0.3-0.39 0.6-0.79-0.05-0.25-0.1-0.5c-0.48-1.04-5.37-3.42-7.07-3.38-0.35 0.38-0.64 0.59-0.89 1.09zm161.29-5.97c-0.05 0.59 3.92 2.01 4.98 2.29q0.1-0.1 0.2-0.2c-0.92-1.26-3.01-2.13-5.18-2.09zm-26.17-5.67c-0.84 2.13-0.91 4.52-1.99 6.37-2.1 3.61-7.07 7.59-10.64 9.75-3.74 2.27-6.83 0.83-11.84 1.69-3.63 0.62-11.57 4.31-12.34 7.36 2.68-0.58 4.9-2.68 8.06-3.38 4.03-0.9 10.21 0.56 14.23-0.7 5.16-1.62 14.66-9.04 16.51-13.93 0.92-2.41 0.04-5.63 0.8-8.06q1.1-2.78 2.19-5.57c0.61-1 1.71-1.67 2.09-2.88q-0.2-0.1-0.4-0.2c-2.35 1.94-5.46 6.53-6.67 9.55zm49.46-0.2c-4.96 2.93-9 5.94-12.14 10.65-0.98 1.47-2.67 4.49-1.2 6.56 1.61 0.41 3.04-0.07 4.08-0.79 2.27-1.59 4.15-4.02 5.87-6.17 1.2-1.49 2.86-2.61 3.89-4.28 0.87-1.43 2.22-3.3 1.49-5.37-0.56-0.38-1-0.62-1.99-0.6zm-16.92-1.69c0.59 1.3 2.57 3.61 3.98 4.08-0.59-1.8-2.29-3.46-3.98-4.08zm-13.63-7.36c-2.2 1.32-5.48 5.21-5.47 8.55 2.78 2.77 8.67-6.33 7.36-7.96-0.32-0.58-0.94-0.65-1.89-0.59zm-31.74 23.38q1.64-1.74 3.28-3.48c1.36-1.09 4.01-2.08 4.78-3.69q0.05-0.39 0.1-0.79l-0.5-0.5-1.29-0.1c-3.06 1.78-5.89 2.66-7.96 5.37-0.53 0.7-1.79 1.89-0.9 3.09 0.49 0.67 1.86 0.53 2.49 0.1zm53.23-18.41q0.1 0.1 0.2 0.2 0.1-0.1 0.2-0.2c-0.51-1.63-1.66-5.54-2.78-6.37 0.15 1.94 0.95 5.65 2.38 6.37zm-172.34-7.56q-0.25 0.15-0.5 0.3-0.04 0.49-0.09 0.99c0.7 0.76 1.6 1.32 3.08 1.3q0.3-0.4 0.6-0.8c-0.47-1.03-1.64-1.77-3.09-1.79zm181.3 5.17c0.28-0.42 0.79-11.24 0.79-11.24-0.74 1.8-2.78 9.69-1.19 11.24zm-195.92 1.99c-1.33-2.75-7.3-5.3-10.85-5.97-2.13-0.4-4.82 0.48-6.47-0.5-3.72-2.21-7.18-5.85-9.85-9.15-1.17-1.46-3.1-2.45-3.88-4.28-1.92-4.5-0.82-11.93-5.67-13.43q0.55 1.99 1.09 3.98c0.7 3.84 0.2 8.65 1.7 11.74 1.57 3.26 5.18 5.69 7.66 8.16 2.16 2.16 4.34 4.94 7.36 6.17 2.89 1.18 7.95-0.16 11.15 0.7 2.32 0.62 5.28 2.77 7.56 2.88q0.1-0.15 0.2-0.3zm-56.22-30.45c-0.36 1.86 1.29 3.23 2.48 3.98q0.35-0.05 0.7-0.1c0.98-1.97-1.49-3.78-3.18-3.88zm221 11.25c2.9-2.08 5.87-5.41 7.66-8.56 1.1-1.94 0.84-4.51-1.99-4.48-3.69 1.81-5.85 6.68-8.56 9.65-0.7 0.78-2.68 2.4-1.89 3.89 0.87 1.71 3.97 0.08 4.78-0.5zm-190.16-1.99q-0.25 0.1-0.49 0.2-0.35 0.25-0.7 0.49c-0.7 2.74 4.5 7.38 6.27 8.66 0.98 0.71 2.69 2 3.78 0.6 0.44-2.57-6.65-9.29-8.86-9.95zm230.16-15.42q-0.4-0.06-0.8-0.1c-0.62 0.57-1.24 1.14-1.29 2.28q0.29 0.25 0.59 0.5c0.86 0.33 1.74-0.66 2.09-1.19 0.16-0.74 0.01-1.23-0.59-1.49zm-278.22-24.98c-0.76 1.49-1.18 4.58 0.6 5.37q0.4-0.3 0.8-0.59c0.38-1.54-0.22-3.15-0.7-4.38q-0.35-0.2-0.7-0.4zm66.77 19.3c3.13-1.88 4.81-6.2 5.77-10.25 1.28-5.39 0.41-11.57 1.29-17.41 1.05-6.9 0.7-14.5 0.7-22.09 0-7.07 0.32-14.82-0.79-20.8-0.86-4.6-1.32-8.63-3.69-11.64-2.41-3.07-6.54-4.01-12.14-3.98-2.74 1.07-8.44-0.12-11.84 0.4-8.23 1.25-17.5 0.88-23.38 4.48-2.05 1.26-3.15 2.98-4.48 4.97-1.48 2.23-2.94 4.66-3.68 7.67q-0.6 5.17-1.19 10.34-0.15 3.14-0.3 6.27c-1.17 7.48-1.39 15.51-1.39 23.78-0.01 9.59-1.37 19.77 4.67 23.59 4.57 2.88 13.97 3.48 20.1 4.67q4.13 0.45 8.26 0.9c6.72 1.14 16.75 2.32 22.09-0.9zm-30.55-4.67c-5.02-1.07-14.59-1.87-18.11-4.28-3.27-2.24-1.32-12.34-2.09-17.42v-8.55c0.78-5.18 0.23-10.48 1-15.43v-6.36q0.2-3.09 0.4-6.17c1.21-6.99 2.66-12.23 7.76-15.23 4.43-2.6 15.54-2.68 21.69-3.68q5.37-0.15 10.75-0.3c4.23-0.03 6.91 0.19 9.15 1.99 1.7 1.37 2.94 5.25 3.38 7.76v6.67q0.05 7.26 0.1 14.53c0 4.93 0.39 10.27-0.3 14.82q-0.05 2.64-0.09 5.28c-1.27 8.34 0.44 19.69-3.59 25.37-3.34 4.72-13.67 3.27-20 2.19q-5.02-0.6-10.05-1.19zm7.27-68.76c-1.68-2.2-5.23-2.63-9.16-2.59q-1.39 0.15-2.78 0.3c-4.18 0.76-7.52 1.11-9.36 4.18-2.84 4.75-1.22 18.56-2.29 25.47q-0.34 3.98-0.69 7.96c-0.84 4.62-1.77 11.03-1 16.22 0.47 3.15-0.36 6.36 1 8.46 2.15 3.34 6.96 2.69 11.54 3.68 2.02 0.44 4.34 1.55 6.97 1.1 7.67-1.34 4.56-11.92 5.77-19.71q0.64-7.36 1.29-14.72v-8.56c0.5-3.26 0.69-7.72 0.2-11.04-0.54-3.66 0.33-8.37-1.49-10.75zm-4.08 52.34v0.2q-3.09-0.5-6.17-1c-3.4-0.55-8.26-0.08-10.95-1.39-0.64-0.49-0.26-6.74 0-7.56q8.56 0.54 17.12 1.09c0.17 0.13 0.35 7.8 0 8.66zm-0.5 5.77c-0.14 0.89 0.05 1.65-0.4 2.19-1.34 1.6-7.94-0.16-9.95-0.5-2.18-0.37-5.2-0.02-6.17-1.59-0.47-0.78-0.72-3.86-0.2-4.78q3.53 0.45 7.07 0.9c3.28 0.52 6.98-0.13 9.65 1.09q0.1 0.1 0.2 0.2c0.26 0.66-0.1 1.82-0.2 2.49zm-7.46-56.72q1.69-0.15 3.38-0.3c2.2-0.04 5.24-0.27 6.17 1 0.52 1.23 0.23 3.69 0.2 5.27-1.21 0.55-4 0.42-5.47 0.2h-11.05q-0.05-0.05-0.1-0.1c0.27-5.07 2.32-5.29 6.87-6.07zm9.65 16.42q-0.05 0.05-0.1 0.1c-5.15-0.55-11.13-1.04-16.62-1-0.43-1.56-0.27-4.97 0.2-6.36 5.68 0 10.9 0.05 16.42 0.29 0.76 1.67 0.12 4.95 0.1 6.97zm223.29-25.67c3.63 0.67 7.1 0.52 9.95 1.89 2.35 1.13 4.35 3.39 5.67 5.57 4.45 7.39 2.08 20.79 3.68 31.05 1.11 7.11 0.14 15.58 0.1 22.88-0.02 4 0.61 8.44-1.99 10.05-2.75 1.71-6.63 1.87-10.25 2.69-7.38 1.67-15.78 2.2-23.68 3.58-4.1 0.72-10.78 0.37-12.94-1.69-5.49-5.24-3.33-19.67-4.77-29.16-0.88-5.73-0.3-12.19-0.3-18.3q0.05-7.27 0.1-14.53v-6.27c0.41-2.37 1.51-5.25 2.78-6.97 1.32-1.78 3.16-1.69 5.48-2.58 9.16 0 18.33 0.33 26.17 1.79zm-8.16 45.77q0.19 3.43 0.39 6.87c1.14 7.53-2.14 20.67 7.96 19q3.04-0.64 6.07-1.29c4.66-0.87 8.45-0.46 10.45-3.88 1.09-1.86 1.38-11.17 0.9-14.33-1.12-7.37-0.94-14.62-2.09-22.19q-0.2-3.68-0.4-7.36c-0.86-5.71 0.43-11.59-2.49-15.03-2.35-2.77-8.82-3.32-13.83-3.28q-1.29 0.15-2.59 0.3c-1.65 0.34-3.49 1.42-4.27 2.68-1.54 2.48-1.3 9.98-1.3 13.93 0 8.11 0 17.32 1.2 24.58zm16.61-10.85q-6.66 0.4-13.33 0.8c-0.69-1.5-0.62-6.57-0.6-8.56 3.47-1.57 8.99 0.86 12.54-0.49h4.38q0.3 3.98 0.6 7.96c-0.92 0.43-2.3 0.1-3.59 0.29zm3.78 3.19q0.45 4.08 0.9 8.16c-1.28 0.62-3.17 0.23-4.88 0.5-4.05 0.62-8.29 0.42-12.14 1.19q-0.09-0.05-0.19-0.1c-0.33-1.66-1.21-8.12-0.7-9.45 0.4-0.51 2.76-0.44 3.68-0.3 2.04 0.3 9.74 0.3 11.34-0.3h1.8q0.09 0.15 0.19 0.3zm1.5 18.8c-3.25 1.61-8.09 0.84-12.04 1.6q-2.69 0.44-5.38 0.89-0.15-4.43-0.29-8.85 7.86-0.55 15.72-1.1h1.59c0.8 1.72 0.43 5.14 0.4 7.46zm-0.8 8.66c-1.05 0.92-3.1 0.7-4.78 1-3.19 0.56-8.61 2.29-11.14 0.39-0.28-1.22-0.76-3.37-0.4-4.67 3.5-0.77 7.73-0.78 11.45-1.39 1.84-0.31 3.59 0.03 5.07-0.6q0.15 0.05 0.3 0.1c0.9 0.69 0.04 4.7-0.5 5.17zm-18.21-56.62c1.01-1.37 4.93-1.09 6.97-0.79 5.43 0.8 9.43-0.09 9.35 6.27h-16.42c-0.3-1.06-0.43-4.63 0.1-5.48zm-247.56-5.67c-2.01 2.59-1.81 7.89-2.69 11.54q0.1 0.15 0.2 0.3 0.15-0.05 0.3-0.1c1.5-0.84 3.94-9.73 2.19-11.74zm29.15 33.34q-8.41-0.4-16.82-0.8c-0.43-0.93 0.07-7.61 0.6-8.26q8.21 0.2 16.42 0.4 0.15 0.25 0.3 0.5-0.25 4.08-0.5 8.16zm-0.9 12.23q-0.09 0.05-0.19 0.1-1.99-0.19-3.98-0.39c-3.86-0.66-8.77-1.05-12.94-1.1-0.22-1.32 0.32-7.49 0.9-8.65q5.17 0.19 10.34 0.39h6.57q-0.35 4.83-0.7 9.65zm-21.99-54.13c4.39-4.24 9.6-8.41 12.14-14.42 0.92-2.17 3.38-8.6-1.29-8.66-2.47 1.37-3.69 4.02-5.27 6.27q-4.48 6.12-8.96 12.24c-1.29 1.65-4.44 4-3.48 6.76 2.42 1.62 5.47-0.84 6.86-2.19zm32.54-7.06q0.05-0.1 0.1-0.2-0.05-0.15-0.1-0.3-3.03-0.74-6.07-1.49c-2.33-0.71-3.79-1.85-7.16-1.79 2.57 2.92 7.96 4.23 13.23 3.78zm-9.95-11.74c5.16 1.53 10.75 0.36 15.03-1.2 1.26-0.45 3.65-0.73 4.08-1.99h-0.6c-5.08 2.97-14.13 0.64-20.7 2.19 0.38 0.7 1.35 0.75 2.19 1zm210.15 0.3c-0.13-2.09-2.99-3.83-5.27-3.78q-0.35 0.29-0.7 0.59c-0.54 2.63 4.56 5.44 5.97 3.19zm-221.09 16.51c0.07 0.76 0.32 1.06 0.79 1.4q0.75 0.05 1.5 0.1 0.14-0.05 0.29-0.1c-0.09-1.14-0.8-1.94-1.99-1.99zm178.41-20.2c-0.01 3.43 6.85 6.41 9.66 7.36 1.07 0.37 3.06 1.49 4.57 0.7q0.4-0.4 0.8-0.8c0.85-4.24-8.93-7.84-12.94-8.26-0.87 0.4-1.44 0.49-2.09 1zm25.68 2.19q0.39-0.5 0.79-1c-0.11-1.87-2.43-2.51-4.38-2.49-0.55 0.32-0.72 0.41-1.09 0.9 0.14 1.81 2.66 2.66 4.68 2.59zm-86.07-25.48v-0.39c-0.9-0.25-1.93-0.43-3.29-0.4q-0.25 0.2-0.5 0.4v0.49c1.14 0.65 2.79 0.61 3.79-0.1zm-22.59-4.47v-0.1c-3.07 0.04-7.11 0.6-10.15-0.2-3.46-0.91-6.4-3.3-10.55-3.29-3.31 1.53-5.52 3.56-8.76 4.98-3.25 1.43-6.53 2.35-8.35 5.17-1.27 1.96-1.17 4.92-1.99 7.37-1.29 3.81-3.72 8.39-6.67 10.64v0.6q0.05 0.05 0.1 0.1c1.53-0.18 2.02-1.54 2.98-2.29 2.74-2.13 5.13-4.23 6.37-7.86 1.08-3.14 0.97-6.4 3.39-8.16q4.57-2.14 9.15-4.28c1.32-0.81 2.76-2.64 4.48-2.88q4.18 1.04 8.36 2.09c4.37 0.91 8.09-0.42 11.24-1.4q0.2-0.24 0.4-0.49zm68.85 2.38c-0.65 3.63 6.02 12.76 8.26 14.33-1.09-2.98-3.4-5.46-4.87-8.16-1.09-1.98-1.66-4.81-3.39-6.17zm-57.11-0.59c-0.63-0.26-1.15-0.43-2.19-0.4l-0.5 0.3q-0.1 0.35-0.2 0.69 0.2 0.3 0.4 0.6c0.7 0.19 1.5 0.29 1.99-0.2 0.32-0.18 0.34-0.28 0.5-0.59zm46.97 3.68c0.13-1.19 0.05-4.06-0.7-4.78-0.36 1.43-0.43 3.97 0.5 4.98q0.1-0.1 0.2-0.2zm35.22 3.68q0.1-0.05 0.2-0.1v-0.4q-5.97-4.62-11.94-9.25c1.19 4.3 7.79 8.1 11.74 9.75zm-56.52-3.38v0.39l0.2 0.1c1.3-0.86 4.86-5.78 4.98-7.76h-0.3c-2.45 1.87-3.02 4.82-4.88 7.27zm-57.01-2.49q-0.25-0.3-0.5-0.6-0.55-0.1-1.1-0.2c-0.91 0.63-1.48 1.54-2.38 2.09-2.04 1.25-7.59 2.65-8.56 4.58l-0.1 0.99q0.2 0.25 0.4 0.5c3.46 0.85 12.18-4.52 12.24-7.36zm50.34-12.34c-1.71 1.14-2.95 3.14-4.67 4.38q-2.24 1.64-4.48 3.28h-0.2c0.5 0.26 2.3-0.66 3.09-0.99 1.53-0.66 9.24-4.85 7.76-7.17q-0.75 0.25-1.5 0.5zm46.57 0c1.14-3.4-5.22-3.46-8.06-3.28-6.27 0.39-12.97-0.85-18.31-2.29-2.55-0.69-4.65-1.95-7.76-1.89-4.36 2.54-0.65 4.73 2.19 5.97 3.43 1.48 7.44 2.67 11.54 3.48q4.58 0.35 9.16 0.7c4.06 0.64 10.29 0.14 11.24-2.69zm105.28 131.34q-0.25 0.2-0.5 0.4c-0.49-1.94 0.54-4.73 0.9-6.46 0.98-4.73 1.43-9.43 1.39-14.83 3.87 0.87 2.16 6.84 2.39 10.85q0.1 2.33 0.2 4.67-2.19 2.69-4.38 5.37zm-167.27 83.79c-1.41 0.58-4.9 0.76-3.38 3.38 1.11 2.3 17 4.48 17.61 0.5 0.95-3.12-10.66-3.98-14.23-3.88zm-86.37 9.35q-1.34 0.35-2.68 0.7c-2.16-0.38-9.04-3.89-10.15-5.38q-0.35-2.58-0.7-5.17 2.19 1.29 4.38 2.59c2.47 1.26 4.8 2.13 7.46 3.28 1.8 0.78 3.54 1.92 5.77 2.29-0.43 1.11-2.88 1.32-4.08 1.69zm-35.02-40.3q-2.29-0.64-4.58-1.29c-1.41-0.94-2.26-3.11-3.28-4.48q-2.59-2.93-5.18-5.87c-0.33-0.49-1.6-6.38-1.69-7.16 1.53 0.45 2.85 2.72 3.78 3.88 2.94 3.64 5.97 6.91 8.66 10.94q1.19 1.89 2.39 3.78-0.05 0.1-0.1 0.2zm35.72-168.16q0.4-1.44 0.79-2.89 2.29-1.24 4.58-2.48c2.25-1.33 4.17-3.77 6.77-4.58q4.08-0.6 8.16-1.19 0.2 0.1 0.4 0.19c-0.95 1.27-2.62 2.03-3.89 2.99-5.56 4.21-11.05 8.66-18.2 11.34q-0.1-0.05-0.2-0.1 0.79-1.64 1.59-3.28zm176.82-11.94c1.06 0 9.14 3.81 9.45 4.28q0.5 2.09 0.99 4.18 0.6 1.29 1.2 2.58v0.3c-4.84-2.08-9.66-4.95-13.73-7.86-1.18-0.84-2.69-1.47-3.58-2.58q2.83-0.45 5.67-0.9zm20.3-32.24q0.05-0.05 0.1-0.1 1.69 0.35 3.38 0.7 1.89 21.94 3.78 43.88 1.14 12.04 2.29 24.08 1.09 9.65 2.19 19.3-1.59-0.15-3.19-0.3-4.27-43.78-8.55-87.56zm-2.39-13.13c4.29-0.02 7.68 2.37 9.55 4.87 0.61 0.81 1.76 2.73 0.7 3.98-1.05 1.24-4.25 0.77-5.87 0.3-4.97-1.45-13.59-5.66-4.38-9.15zm26.57 129.25c-1.04 0.34-2.58 0-3.89 0.2q-6.41 0.45-12.83 0.9c-0.61-1.69-0.23-4.8-0.2-6.87 1.58-0.73 4.28 0.18 6.07-0.5h10.55q0.15 3.14 0.3 6.27zm-6.67-56.42c1.61 0.14 2.56 3.14 3.28 4.28q2.29 3.04 4.58 6.07 0.05 1.44 0.1 2.89c0.31 1.5 0.89 2.7 1.39 3.98v0.1h-0.3c-1.72-1.19-3.64-2.82-4.77-4.58-1.27-1.98-1.99-4.53-3.68-6.07-1.82-1.66-5.21-3.07-5.48-6.17q2.44-0.25 4.88-0.5zm-21.2 175.13q-1.29 0.3-2.58 0.6c-1.71 0.53-3.15 1.31-4.38 2.29v0.29q0.05 0.05 0.1 0.1 1.44-0.59 2.88-1.19c2.01-0.46 4.25-0.23 5.88-0.8v-0.3c-0.38-0.66-0.95-0.9-1.9-0.99z"/>
		<path id="Path 3471" fill-rule="evenodd" class="s2" d="m3069.84 2859.77c-1.6-10.26 0.77-23.66-3.68-31.05-1.32-2.18-3.32-4.44-5.68-5.57-2.84-1.36-6.32-1.22-9.95-1.89-7.83-1.45-17-1.79-26.17-1.79-2.32 0.89-4.15 0.81-5.47 2.58-1.27 1.72-2.37 4.6-2.79 6.97v6.27q-0.04 7.26-0.09 14.53c0 6.12-0.58 12.57 0.29 18.31 1.45 9.48-0.71 23.91 4.78 29.15 2.16 2.06 8.84 2.41 12.94 1.69 7.9-1.38 16.3-1.91 23.68-3.58 3.61-0.82 7.49-0.98 10.25-2.69 2.59-1.61 1.96-6.05 1.99-10.05 0.04-7.3 1.01-15.77-0.1-22.88zm-2.59 27.96c-2 3.42-5.79 3.01-10.45 3.88q-3.03 0.64-6.07 1.29c-10.11 1.67-6.82-11.47-7.96-19q-0.2-3.44-0.4-6.87c-1.19-7.26-1.19-16.47-1.19-24.58 0-3.95-0.24-11.45 1.29-13.93 0.78-1.26 2.63-2.34 4.28-2.68q1.3-0.15 2.59-0.3c5.01-0.04 11.48 0.51 13.83 3.28 2.92 3.44 1.63 9.32 2.49 15.03q0.2 3.68 0.4 7.36c1.15 7.57 0.97 14.82 2.09 22.19 0.47 3.16 0.18 12.47-0.9 14.33z"/>
		<path id="Path 3472" fill-rule="evenodd" class="s2" d="m2856.4 2851.41q-0.05-7.27-0.1-14.53v-6.67c-0.44-2.51-1.68-6.39-3.38-7.76-2.24-1.8-4.92-2.02-9.16-1.99q-5.37 0.15-10.74 0.3c-6.16 1-17.26 1.08-21.69 3.68-5.11 3-6.55 8.24-7.77 15.23q-0.19 3.08-0.39 6.17v6.36c-0.77 4.95-0.22 10.25-1 15.43v8.55c0.77 5.08-1.18 15.18 2.09 17.42 3.52 2.41 13.08 3.21 18.11 4.28q5.03 0.59 10.05 1.19c6.33 1.08 16.66 2.53 20-2.19 4.02-5.68 2.32-17.03 3.58-25.37q0.05-2.64 0.1-5.28c0.68-4.55 0.3-9.89 0.3-14.82zm-25.47-0.5v8.56q-0.65 7.36-1.3 14.72c-1.2 7.79 1.9 18.37-5.77 19.71-2.63 0.45-4.94-0.66-6.96-1.1-4.58-0.99-9.39-0.34-11.55-3.68-1.35-2.1-0.52-5.31-0.99-8.46-0.77-5.19 0.16-11.6 0.99-16.22q0.35-3.98 0.7-7.96c1.07-6.92-0.55-20.72 2.29-25.47 1.83-3.07 5.18-3.42 9.35-4.18q1.4-0.15 2.79-0.3c3.93-0.04 7.47 0.39 9.15 2.59 1.82 2.38 0.96 7.09 1.5 10.75 0.49 3.32 0.29 7.78-0.2 11.04z"/>
		<path id="Path 3473" fill-rule="evenodd" class="s1" d="m3061.58 2835.69c0.08-6.35-3.92-5.47-9.36-6.27-2.04-0.3-5.95-0.58-6.96 0.79-0.53 0.85-0.4 4.42-0.1 5.48z"/>
		<path id="Path 3474" fill-rule="evenodd" class="s1" d="m2820.98 2830.21q-1.69 0.15-3.39 0.3c-4.54 0.78-6.59 1-6.86 6.07q0.05 0.05 0.1 0.1h11.04c1.47 0.22 4.27 0.35 5.48-0.2 0.02-1.58 0.32-4.04-0.2-5.27-0.93-1.27-3.97-1.04-6.17-1z"/>
		<path id="Path 3475" fill-rule="evenodd" class="s1" d="m3051.13 2838.67c-1.79 0.68-4.49-0.23-6.07 0.5-0.02 2.07-0.4 5.18 0.2 6.86q6.42-0.44 12.84-0.89c1.3-0.2 2.84 0.14 3.88-0.2q-0.15-3.13-0.3-6.27z"/>
		<path id="Path 3476" fill-rule="evenodd" class="s1" d="m2810.73 2839.67c-0.47 1.39-0.63 4.79-0.2 6.37 5.49-0.05 11.47 0.44 16.62 0.99q0.05-0.05 0.1-0.1c0.02-2.02 0.66-5.3-0.1-6.97-5.52-0.24-10.74-0.29-16.42-0.29z"/>
		<path id="Path 3477" fill-rule="evenodd" class="s1" d="m3057.6 2847.93c-3.56 1.35-9.07-1.08-12.54 0.49-0.02 1.99-0.09 7.06 0.6 8.56q6.66-0.4 13.33-0.8c1.29-0.19 2.66 0.14 3.58-0.29q-0.3-3.98-0.59-7.96z"/>
		<path id="Path 3478" fill-rule="evenodd" class="s1" d="m2810.63 2848.82c-0.53 0.65-1.03 7.33-0.6 8.26q8.41 0.4 16.82 0.8 0.25-4.08 0.5-8.16-0.15-0.25-0.3-0.5-8.21-0.2-16.42-0.4z"/>
		<path id="Path 3479" fill-rule="evenodd" class="s1" d="m3060.78 2859.07c-1.61 0.6-9.3 0.6-11.34 0.3-0.93-0.14-3.28-0.21-3.68 0.3-0.52 1.33 0.37 7.79 0.69 9.45q0.1 0.05 0.2 0.1c3.85-0.77 8.09-0.57 12.14-1.19 1.71-0.27 3.6 0.12 4.88-0.5q-0.45-4.08-0.9-8.16-0.1-0.15-0.2-0.3z"/>
		<path id="Path 3480" fill-rule="evenodd" class="s1" d="m2809.73 2860.07c-0.57 1.16-1.11 7.33-0.89 8.65 4.17 0.05 9.08 0.44 12.93 1.1q1.99 0.2 3.98 0.4l0.2-0.1q0.35-4.83 0.7-9.66h-6.57q-5.17-0.2-10.35-0.39z"/>
		<path id="Path 3481" fill-rule="evenodd" class="s1" d="m3062.27 2870.71q-7.86 0.55-15.72 1.1 0.15 4.42 0.3 8.85 2.69-0.44 5.37-0.89c3.96-0.76 8.8 0.01 12.04-1.59 0.04-2.33 0.41-5.75-0.39-7.47z"/>
		<path id="Path 3482" fill-rule="evenodd" class="s1" d="m2808.44 2871.71c-0.26 0.82-0.64 7.07 0 7.56 2.69 1.31 7.55 0.84 10.95 1.39q3.08 0.5 6.17 1v-0.2c0.35-0.86 0.16-8.53 0-8.66q-8.56-0.55-17.12-1.09z"/>
		<path id="Path 3483" fill-rule="evenodd" class="s1" d="m3063.67 2881.56c-1.48 0.63-3.23 0.29-5.08 0.59-3.71 0.62-7.94 0.63-11.44 1.4-0.37 1.3 0.11 3.45 0.4 4.67 2.52 1.9 7.95 0.17 11.14-0.39 1.68-0.3 3.73-0.08 4.78-1 0.53-0.47 1.4-4.48 0.5-5.17q-0.15-0.05-0.3-0.1z"/>
		<path id="Path 3484" fill-rule="evenodd" class="s1" d="m2808.34 2882.55c-0.52 0.93-0.28 4.01 0.2 4.78 0.96 1.57 3.99 1.22 6.17 1.59 2.01 0.34 8.6 2.1 9.95 0.5 0.45-0.54 0.26-1.3 0.4-2.19 0.1-0.67 0.46-1.82 0.2-2.49q-0.1-0.1-0.2-0.2c-2.68-1.22-6.37-0.57-9.65-1.09q-3.54-0.45-7.07-0.9z"/>
		<path id="Path 3485" fill-rule="evenodd" class="s2" d="m3035.41 2715.69c-9.21 3.49-0.59 7.7 4.38 9.15 1.62 0.47 4.82 0.94 5.87-0.3 1.06-1.25-0.09-3.17-0.7-3.98-1.87-2.5-5.25-4.89-9.55-4.87z"/>
		<path id="Path 3486" fill-rule="evenodd" class="s2" d="m3049.54 2816.68q-1.1-9.65-2.19-19.3-1.15-12.04-2.29-24.08-1.89-21.94-3.78-43.88-1.69-0.35-3.38-0.7-0.05 0.05-0.1 0.1 4.28 43.78 8.55 87.56 1.6 0.15 3.19 0.3z"/>
		<path id="Path 3487" fill-rule="evenodd" class="s3" d="m2895.02 2814.32c-2.06 1.68-4.16 2.85-5.87 4.87-5.99 7.06-8.58 16.59-10.85 27.46-0.57 2.77-0.22 5.43-0.69 8.46-0.46 2.94-0.26 7.09 0.2 9.85 0.9 5.44 1 10.28 2.39 14.83 0.36 1.19 0.54 3.56 1.49 4.18 1.98 0.62 5.51-0.18 7.56 0.3q2.84 0.94 5.67 1.89 1.49 0.79 2.99 1.59v-0.1c-1.55-3.32-6.14-13.38-4.88-18.21 4.43-1.29 8.97-4.3 13.04-6.37 1.22-0.62 3.96-1.19 3.68-2.98-1.04-1.25-4.06-1.37-5.77-1.89q-5.92-2.04-11.84-4.08c-0.48-2.47 0-6.62 0.39-9.06 1.82-11.28 3.48-20.71 16.52-20.4v-0.1q-0.1-0.14-0.2-0.29c-4.23-1.33-7.49-4.54-10.64-7.07-1.08-0.86-1.81-2.35-3.19-2.88z"/>
		<path id="Path 3488" fill-rule="evenodd" class="s3" d="m2916.32 2826.95q1.14 1.05 2.28 2.09c1.36 1.74 2.18 4 2.89 6.37 1.44 4.81 1.48 10.33 2.39 15.82q0.05 2.49 0.1 4.98c1.76 10.94 0.02 23.25-3.59 30.74q-0.79 1.8-1.59 3.59c-2.68 4.07-8.52 5.33-14.23 3.78q0.9 1.69 1.8 3.38 1.38 3.18 1.99 7.06c25.37 0.86 31.35-31 26.96-56.41-1.05-6.1-1.43-11.88-2.79-17.22-0.37-1.47-0.43-3.02-1.09-4.18-4.96 0.6-10.05 1.46-15.12 0z"/>
		<path id="Path 3489" fill-rule="evenodd" class="s3" d="m2958.6 2812.43q-2.18 0.29-4.37 0.59c-4.63 1.16-11.56 4.1-13.54 7.76q-0.19 1.55-0.39 3.09c-0.98 2.74-2.27 6.19-2.89 9.35q0.6 3.34 1.19 6.67 1.2 9.1 2.39 18.21v5.17c0 6.46-0.36 12.3-1.69 17.71-0.3 1.24-2.45 7.98-2.29 8.56q1 1.59 1.99 3.19c3.69 5.51 9.03 10.05 16.72 11.44 7.68 1.39 15.46-3.49 19.4-6.27 4.87-3.43 9.06-7.97 11.45-13.83 3.2-7.88 4.78-20.62 2.98-31.35q-0.85-7.41-1.69-14.82c-2.09-9.87-7.2-20.37-15.42-23.98-3.64-1.6-8.72-1.51-13.84-1.49z"/>
		<path id="Path 3490" fill-rule="evenodd" class="s0" d="m2993.63 2847.85c-1.04-5.53-1.01-11.08-2.49-15.92-2.53-8.28-9.72-19.21-17.11-22.39-4.95-2.13-14.63-2.55-20.8-1.1-4.95 1.17-8.52 3.58-12.44 5.58-0.61-0.82-1.24-5.21-1.79-6.47-2.12-4.92-8.16-12.7-15.02-12.64 0.89 1.81 3.66 2.6 4.97 4.08 3.46 3.91 10.51 12.82 5.87 19.9-1.26 1.93-2.57 3.19-5.07 3.88-3.19 0.88-7.39 0.76-10.55 0.1-8.01-1.65-12.99-4.78-18.31-8.95q-2.43-2.19-4.87-4.38c-4.17-3.02-10.34-7.2-16.52-2.99v0.3c0.79 0.42 1.78-0.07 2.98 0.2 2.3 0.52 7.97 2.85 9.06 4.48q-1.15 0.85-2.29 1.69c-1.79 1.4-3.56 3.41-4.88 5.27-5.16 7.29-7.67 16.77-9.75 27.17-0.74 3.73-0.32 7.4-0.99 11.44-0.63 3.83-0.39 9.05 0.3 12.74 1.07 5.76 2.39 10.08 3.88 14.92-0.83 0.9-2.7 1.18-3.88 1.7-2.08 0.91-3.77 2.38-5.28 3.88-0.62 0.62-2.49 1.85-1.49 3.08 0.18 0.31 0.28 0.34 0.6 0.5 1.64-0.08 2.07-1.2 3.08-1.89 1.84-1.25 3.97-2.61 6.17-3.38 11.15-3.93 21.13 2.33 25.18 9.15 8.23 13.9-2.8 28.39-14.73 31.14-4.18 0.97-9.34 0.26-12.54-0.99q-1.89-0.8-3.78-1.59c0.41 1.81 5.29 3.66 7.26 4.28 10.88 3.36 22.23-2.17 26.07-9.26q0.15-0.05 0.3-0.1c10.4 7.45 25.11 10.84 40.2 13.44 3.64 0.62 16.46 1.55 17.22-1.7-3.61-0.28-7.93 0.23-11.74-0.49-11.33-2.16-21.26-4.52-30.55-8.46-2.99-1.27-11.45-4.58-12.94-6.77-0.16-0.57 1.51-6.31 1.59-8.36h6.17q2.04-0.59 4.08-1.19c4.73-2 9.37-4.88 12.34-8.66 0.62-0.79 2.46-4.22 3.09-4.57q0.15-0.05 0.29-0.1 1.4 2.04 2.79 4.08c1.99 2.6 5.1 5.18 8.26 6.56 2.89 1.27 5.54 2.68 8.95 3.39 5.19 1.07 10.34-0.7 13.64-1.99 8.9-3.49 15.35-8.62 20.1-16.22 5.67-9.09 8.1-27.84 5.37-42.39zm-7.06 36.22c-2.39 5.86-6.58 10.4-11.45 13.83-3.94 2.78-11.72 7.66-19.4 6.27-7.69-1.39-13.03-5.93-16.72-11.45q-0.99-1.59-1.99-3.18c-0.16-0.58 1.99-7.32 2.29-8.56 1.33-5.41 1.69-11.25 1.69-17.71v-5.17q-1.19-9.11-2.39-18.21-0.59-3.33-1.19-6.67c0.62-3.16 1.91-6.61 2.89-9.35q0.2-1.54 0.39-3.09c1.98-3.66 8.91-6.6 13.54-7.76q2.19-0.3 4.37-0.6c5.12-0.01 10.2-0.1 13.84 1.5 8.22 3.61 13.33 14.11 15.42 23.98q0.85 7.41 1.69 14.82c1.8 10.73 0.22 23.47-2.98 31.35zm-78.21 20.69q-0.61-3.88-2-7.06-0.89-1.69-1.79-3.38c5.71 1.55 11.55 0.29 14.23-3.78q0.8-1.8 1.59-3.59c3.61-7.49 5.35-19.8 3.59-30.74q-0.05-2.49-0.1-4.98c-0.91-5.49-0.95-11.02-2.39-15.82-0.71-2.37-1.53-4.63-2.89-6.37q-1.14-1.04-2.29-2.09c5.08 1.46 10.17 0.6 15.13 0 0.66 1.16 0.72 2.71 1.09 4.18 1.36 5.34 1.74 11.12 2.79 17.22 4.39 25.41-1.59 57.27-26.96 56.41zm-15.33-35.32c-1.26 4.83 3.33 14.89 4.88 18.21v0.1q-1.5-0.8-2.99-1.59-2.83-0.95-5.67-1.89c-2.05-0.48-5.58 0.32-7.56-0.3-0.95-0.61-1.13-2.99-1.49-4.18-1.39-4.55-1.49-9.39-2.39-14.83-0.46-2.76-0.66-6.91-0.2-9.85 0.47-3.03 0.12-5.69 0.69-8.46 2.27-10.87 4.86-20.4 10.85-27.46 1.71-2.02 3.81-3.19 5.87-4.87 1.38 0.53 2.11 2.02 3.19 2.88 3.15 2.53 6.41 5.74 10.64 7.07q0.1 0.15 0.2 0.29v0.1c-13.04-0.31-14.7 9.13-16.52 20.4-0.39 2.44-0.87 6.59-0.39 9.06q5.92 2.04 11.84 4.08c1.71 0.52 4.73 0.64 5.77 1.89 0.28 1.79-2.46 2.36-3.68 2.98-4.07 2.07-8.61 5.08-13.04 6.37zm70.35-46.47q-1.59 0.25-3.18 0.5c-3.25 0.8-6.38 2.47-8.06 4.88-2.15 3.07-2.46 7.41-3.29 11.84-0.49 2.62-0.44 6.02-0.89 8.85v5.77c-1.38 8.63 0.23 18.9 2.29 25.48 1.05 3.36 2.76 8.57 5.17 10.44 1.12 0.88 2.56 1.68 3.98 2.19 11.04 4 15.79-6.66 18.11-14.03 0.5-1.57 2.65-9.08 1.79-11.14-0.59-0.97-2.68-1.11-3.68-1.69-4.11-2.38-9.31-3.86-13.33-6.47v-0.4c0.72-0.8 2.23-1.14 3.28-1.59q5.27-2.14 10.55-4.28c1.12-0.52 2.97-0.36 3.58-1.39 0.43-1.13-0.46-8.1-0.7-9.55-1.64-9.96-4.1-19.39-15.62-19.41z"/>
		<path id="Path 3491" fill-rule="evenodd" class="s6" d="m2997.71 2882.46c-2.55-2.02-9.84-1.1-14.13-1.1h-36.52q-30.1 0.05-60.2 0.1h-13.63c-2 0-4.58 0.04-4.28 2.19 0.32 2.35 4.42 1.69 7.06 1.69h22.29q36.12-0.05 72.24-0.1 9.85-0.1 19.7-0.2c2.96-0.45 5.63 0.34 7.47-0.99 0.16-0.62 0.16-0.98 0-1.59zm-121.2-43.59h19q39.01 0.05 78.02 0.1h17.21c2.64 0 5.91 0.73 5.97-1.99-1.54-1.63-5.85-1.09-8.95-1.09q-11.45-0.1-22.89-0.2-46.57-0.05-93.14-0.1-0.64 0.4-1.29 0.8-0.1 0.29-0.2 0.59c0.19 2.6 3.59 1.89 6.27 1.89z"/>
		<g id="&lt;Group&gt;" style="opacity: .5">
			<path id="Path 3493" fill-rule="evenodd" class="s6" d="m2871.36 2835.49c30.33 0.36 61.22 0.3 91.84 0.3q11.99 0.1 23.98 0.2c2.17 0 8.14-0.5 9.36 0.39 1.4 1.03 0.77 8.15 0.39 10.55-0.56 3.62-0.39 7.91-0.39 12.04 0 5.18-0.14 10.34 0.59 14.83 0.41 2.46 2 7.9 0.9 10.05-0.98 1.9-4.8 1.06-7.46 1.29q-10.3 0.1-20.6 0.2-37.71 0.05-75.43 0.1h-18.5c-2.09 0-5.67 0.46-6.67-0.7-1.17-1.35-0.16-7.68 0.2-9.95 0.99-6.24 0.86-12.9 0.89-19.8 0.02-3.31 0.27-7.15-0.29-10.25-0.61-3.34-1.26-7.84 1.19-9.25z"/>
		</g>
		<path id="Path 3495" fill-rule="evenodd" class="s0" d="m3027.65 2841.76c-0.46-2.82-0.26-6.61-1.4-8.75-1.95-3.67-14.72-2.52-20.49-2.49-3.68 1.38-7.87-1.07-10.65 1.79-1.16 1.19-1.2 3.64-1.59 5.57-1.17 5.71-1.95 14.86-1 21.29q0.05 2.24 0.1 4.48c0.8 5.18 0.9 10.8 1.79 15.62 0.49 2.65 0.2 5.66 1.69 7.27 2.28 2.46 7.92 2.6 12.44 1.89h5.47c3.08-0.37 6.88-0.07 9.46-1 2.59-0.93 4.22-2.6 4.77-5.57v-6.67-13.13c0-6.83 0.38-14.31-0.59-20.3zm-3.39 40.9c-0.86 1.54-3.71 1.25-5.87 1.59q-5.27 0.25-10.54 0.5c-1.96 0.32-4.37 0.42-6.37 0-3.44-0.73-2.57-6.18-3.29-9.56-0.88-4.14-0.79-9.09-1.49-13.43q-0.05-2.64-0.1-5.27c-0.53-3.45-0.39-7.83 0.1-11.15 0.47-3.14-0.06-8.11 1.29-10.34 0.89-1.46 5.93-0.15 7.67-0.8 3.49-0.01 14.39-0.74 16.81 0.4 1.4 0.7 1.01 4.76 1.3 6.56 0.75 4.66 0.03 10.11 0.79 15.03v3.78c0.61 3.95 1.18 20.06-0.3 22.69zm-151.54-50.15c-1.59-2.48-4.5-1.53-8.16-2.09-5.5-0.84-12.25-0.23-18.11-0.2-1.97 0.77-3.73 0.38-4.88 1.89-1.61 2.14-1.26 6.19-1.79 9.35-1.02 6.14-0.57 13.81-0.59 20.8-0.03 5.65-1.32 20.86 1.99 23.38 3.07 2.34 7.77 1.74 12.63 2.49q2.09-0.05 4.18-0.1c2.05 0.32 7.35 1.01 9.55 0.3 5.79-1.86 4.57-5.29 5.78-11.44 0.97-4.97 0.64-10.5 1.49-16.02 0.87-5.7 0.62-13.38-0.3-18.71-0.57-3.3-0.24-7.24-1.79-9.65zm-1.89 23.78q-0.05 2.54-0.1 5.07c-0.69 4.39-0.61 9.35-1.49 13.54-0.62 2.93-0.02 8.34-2.59 9.35-2.1 0.82-5.89 0.44-8.16 0.1-4.93-0.74-11.65 0.84-14.93-1.59-1.39-1.04-0.76-4.31-1.09-6.47-0.53-3.51-0.2-9.49 0.3-12.84q0.1-3.78 0.2-7.56v-3.18c0.65-4.31 0.13-8.9 0.79-12.94 0.23-1.36-0.07-4.11 0.7-5.07 1.13-1.81 5.77-0.1 7.96-0.9q6.12 0.15 12.24 0.3c1.51 0.13 4.13-0.4 4.78 0.6 1.19 1.86 0.86 7.49 1.29 10.34 0.51 3.35 0.61 7.76 0.1 11.25z"/>
		<path id="Path 3496" fill-rule="evenodd" class="s2" d="m2852.42 2833.8c-2.19 0.8-6.83-0.91-7.96 0.9-0.77 0.96-0.47 3.71-0.7 5.07-0.66 4.04-0.14 8.63-0.79 12.94v3.18q-0.1 3.78-0.2 7.56c-0.5 3.35-0.83 9.33-0.3 12.84 0.33 2.16-0.3 5.43 1.09 6.47 3.28 2.43 10 0.85 14.93 1.59 2.27 0.34 6.06 0.72 8.16-0.1 2.57-1.01 1.97-6.42 2.59-9.35 0.88-4.19 0.8-9.15 1.49-13.54q0.05-2.53 0.1-5.07c0.51-3.49 0.41-7.9-0.1-11.24-0.43-2.86-0.1-8.49-1.29-10.35-0.65-1-3.27-0.47-4.78-0.6q-6.12-0.15-12.24-0.3z"/>
		<path id="Path 3497" fill-rule="evenodd" class="s2" d="m3005.66 2834.2c-1.74 0.65-6.78-0.66-7.67 0.8-1.34 2.23-0.82 7.2-1.29 10.34-0.49 3.32-0.63 7.7-0.1 11.15q0.05 2.63 0.1 5.27c0.7 4.34 0.61 9.29 1.49 13.43 0.72 3.38-0.15 8.83 3.29 9.56 2 0.42 4.41 0.32 6.37 0q5.27-0.25 10.54-0.5c2.16-0.34 5-0.05 5.87-1.59 1.48-2.63 0.91-18.74 0.3-22.69v-3.78c-0.76-4.92-0.04-10.36-0.79-15.03-0.29-1.8 0.1-5.86-1.3-6.56-2.42-1.14-13.32-0.41-16.81-0.4z"/>
		<path id="Path 3499" fill-rule="evenodd" class="s3" d="m3539.91 2948.83c-8.14 19.82-36.18 13.94-52.5 10.74 10.27 10.64 22.72 15.4 37.15 14.46 19.97-1.31 29.23-9.51 15.35-25.2z"/>
		<path id="Path 3500" fill-rule="evenodd" class="s3" d="m3847.93 3014.54c60.14-0.3 156.4-32.09 139.29-154.36-14.4-102.94-109-113.2-163.58-117.46-66.33-5.17-133.23-3.51-199.29 5.63-29.43 4.08-64.38 8.25-92.07 25.67-42.41 26.69-47.34 126.57-21.22 178.23 17.91 35.44 42.89 44.69 70.07 53.74 37.71 12.55 207.82 16.2 266.8 8.55z"/>
	</g>
</svg>